<svg width="300" height="95" viewBox="0 0 300 95" fill="none" xmlns="http://www.w3.org/2000/svg">
<mask id="path-1-outside-1_39_48" maskUnits="userSpaceOnUse" x="0" y="0.471222" width="300" height="94" fill="black">
<rect fill="white" y="0.471222" width="300" height="94"/>
<path d="M69.2979 88.505C67.8887 88.505 66.4484 87.8899 64.8962 86.6219C60.386 83.0264 55.2935 77.2584 49.7583 69.4799C44.8346 62.5576 41.2306 57.9267 39.0168 55.6801C38.2898 55.9248 37.5302 56.059 36.7634 56.0781C36.0103 56.0841 35.2724 55.8656 34.644 55.4504C34.0156 55.0352 33.5252 54.4422 33.2352 53.7471C31.2575 59.6771 29.5916 65.5157 28.2581 71.1924C26.6129 78.1956 26.4027 80.6093 26.4182 81.419C26.6359 82.0461 26.7522 82.7039 26.7628 83.3675C26.7628 85.5004 25.264 86.4686 23.872 86.4686C22.6316 86.4686 21.1397 85.7502 19.0379 84.1411C16.5571 82.2925 15.458 80.7489 15.458 79.1397C15.458 78.3645 15.6303 77.3894 16.0179 76.0731C18.9466 65.7689 22.6299 54.6981 26.9833 43.1759L26.9971 43.1414C29.4468 37.0151 32.0844 30.4081 34.8563 23.4513C26.9178 25.6583 21.0914 28.2201 17.496 31.0851L17.4788 31.0989C16.2729 32.0413 15.8353 32.7614 15.8353 33.1215C15.8353 33.4144 15.9352 34.5687 16.8689 38.9619C17.1963 40.4383 16.7656 41.3738 16.3435 41.901C15.9214 42.4282 15.1531 43.0208 13.7593 43.0208C12.3656 43.0208 11.1562 42.3214 10.4068 41.0517C9.10787 38.9843 7.82269 36.1106 6.48582 32.2756L6.47204 32.2377L6.45998 32.1998C6.16903 31.2856 6.01405 30.3336 6 29.3744C6 25.8271 8.5049 23.012 13.4441 21.0101C14.9549 20.3847 22.2457 17.909 35.7212 13.4745C39.1495 12.3443 40.6018 11.1917 41.2151 10.4251L41.2306 10.4061C42.4589 8.91073 43.6597 8.1837 44.9018 8.1837C45.9182 8.1837 47.0001 8.62302 48.2129 9.52923C49.2087 10.2442 50.5214 11.3726 50.5214 12.9473C50.5214 13.7725 50.2027 14.739 49.4878 16.0777L49.4723 16.107C45.1085 23.9337 40.8584 33.2473 36.8203 43.7961C37.956 43.373 39.123 43.0389 40.3106 42.7969H40.3433C40.6524 42.7342 40.9669 42.7019 41.2823 42.7004C41.7682 42.6977 42.2504 42.7866 42.7035 42.9623C46.5419 39.887 50.8832 35.8522 55.6243 30.9473C60.2413 26.2061 62.6377 23.3307 63.866 21.5907C62.0157 20.2538 61.2009 19.0478 61.2009 17.7092C61.2009 16.784 61.6109 15.1697 64.2605 14.4358C65.8541 13.2643 67.7801 11.4054 69.9922 8.90557C71.41 7.29128 73.0259 6.47122 74.7935 6.47122C76.7127 6.47122 78.6249 7.44806 80.6354 9.46031C81.3435 10.1701 82.2858 11.2693 82.2858 12.6269C82.2858 13.5882 81.8362 14.7408 79.5983 17.511C75.6359 22.4004 69.7596 28.7094 62.1105 36.2433C55.943 42.3231 51.4862 46.4303 48.5816 48.7096C51.4328 52.7548 54.3288 56.8757 57.2058 60.9864C61.9933 67.7381 66.1383 72.3036 69.5201 74.545L69.5425 74.5605C70.7484 75.384 71.8269 75.8216 72.6521 75.8216C73.2137 75.8216 74.2302 75.5701 75.8788 74.3779L75.9047 74.3589C76.5283 73.8969 77.2805 73.641 78.0564 73.6267C79.9136 73.6267 81.1574 74.874 81.1574 76.7278C81.1576 76.9007 81.1455 77.0734 81.1212 77.2446C82.6855 73.9024 84.41 69.0595 86.2654 62.7919C88.1604 56.2917 89.3543 51.1956 89.8212 47.6121L87.7849 49.5159C87.0458 50.1895 86.1465 50.8769 85.0836 50.8769C83.9379 50.8769 82.7062 50.043 82.7062 48.21C82.7062 47.4847 82.9887 46.7525 83.5675 45.9703C85.2645 43.5883 87.0935 41.3031 89.0459 39.1255L89.077 39.0928C90.0331 38.0746 91.0771 37.5595 92.1779 37.5595C93.1358 37.5595 94.1798 37.9713 95.5339 38.8895C97.7735 39.4822 98.1353 39.6389 98.4385 39.8198C99.448 40.4349 100.633 41.7029 100.633 44.2992C100.624 45.1487 100.543 45.9959 100.39 46.8317C99.746 50.46 98.323 55.8937 96.1644 63.0469C96.3657 62.9975 96.5722 62.9726 96.7794 62.9728C97.1861 62.962 97.589 63.0543 97.9504 63.2411C98.3119 63.4278 98.6202 63.703 98.8468 64.041C99.6582 65.271 99.0466 66.6975 98.8175 67.2333L98.7985 67.273C98.6779 67.5383 98.4781 67.9793 94.1798 74.8361C92.1125 78.1336 90.593 81.0779 89.6455 83.5812L89.6369 83.6018C89.0184 85.1851 87.7022 86.093 86.019 86.093C84.8131 86.093 83.3608 85.6089 81.5881 84.6166C80.4149 83.9843 79.1762 83.1901 79.1762 81.7567C79.1762 81.3139 79.2968 80.8539 79.6 80.2062C78.2683 81.929 76.0959 84.1187 73.0122 86.8683C71.8321 87.9554 70.5762 88.505 69.2979 88.505ZM157.445 87.4179C156.832 87.4179 156.082 87.2766 155.086 86.9751C152.437 86.1688 149.987 85.1231 149.987 82.9386C149.987 82.2598 150.19 81.469 150.63 80.4456C153.352 74.0398 155.618 67.4497 157.412 60.7245C159.18 54.1365 160.088 48.9956 160.088 45.4311C160.015 45.4845 159.936 45.5465 159.85 45.6188C156.969 47.955 153.141 52.6376 148.456 59.5444C142.815 67.8983 138.779 75.8044 136.456 83.0402C136.084 84.3082 135.714 85.1352 134.942 85.6003L134.875 85.6399L134.806 85.6744C134.455 85.8456 134.068 85.9323 133.678 85.9277C133.161 85.9277 132.556 85.7967 131.717 85.5056C130.303 85.0044 128.965 84.3085 127.743 83.4382L127.72 83.4209C126.387 82.4441 126.106 81.3432 126.106 80.5921C126.106 80.1476 126.137 80.0218 127.054 77.7598C131.433 66.7975 133.738 56.035 133.908 45.7584C130.406 48.887 126.451 54.1347 122.139 61.3775C117.733 68.7184 114.41 75.6769 112.253 82.0806C111.893 83.1419 110.937 85.9432 108.611 85.9432C107.728 85.9432 106.453 85.6124 103.143 83.2194C101.694 82.358 101.386 81.2933 101.386 80.5387C101.386 79.6325 101.836 78.7418 102.88 77.5978C104.249 74.5829 105.836 69.4041 107.595 62.1958C108.94 56.657 109.79 52.1018 110.139 48.5855C109.237 49.447 108.53 50.1361 108.033 50.6426C107.171 51.504 106.31 51.9175 105.4 51.9175C104.06 51.9175 102.616 50.963 102.616 48.8664C102.609 47.8061 103.009 46.7835 103.734 46.0099L103.767 45.9737C105.865 43.7667 107.784 41.3967 109.507 38.8861L109.521 38.8671C110.234 37.8679 111.373 36.5396 113.006 36.5396C113.964 36.5396 114.901 37.0806 116.386 38.5157L118.741 39.3702L118.831 39.4133C120.283 40.1024 121.083 41.4427 121.083 43.1811C121.08 43.5997 121.036 44.017 120.95 44.4267C120.645 46.7616 120.285 49.0519 119.868 51.2973C123.808 45.3983 127.588 40.8415 131.161 37.687C132.279 36.6791 133.461 36.1675 134.673 36.1675C135.819 36.1675 137.166 36.6843 139.027 37.8386C140.703 38.5846 141.783 39.2599 142.438 39.9577L142.474 39.9973L142.509 40.0369C143.358 41.0568 143.771 42.4489 143.771 44.3026C143.78 47.6136 143.591 50.9222 143.205 54.2105C148.097 47.209 152.69 41.6822 156.916 37.7214C158.031 36.6602 159.283 36.1158 160.625 36.1158C162.102 36.1158 163.697 36.8618 165.487 38.3916C168.875 39.1479 170.702 41.677 170.522 45.4156C170.25 50.952 169.384 56.4431 167.938 61.7944C168.209 61.7273 168.487 61.6937 168.765 61.6945C170.404 61.6945 171.549 62.8608 171.549 64.532C171.549 65.2831 171.289 66.0549 170.752 66.887L170.731 66.9181C168.464 70.3017 165.008 76.3936 160.458 85.0387L160.444 85.0662C159.846 86.1602 159.454 86.827 158.721 87.1509C158.319 87.3357 157.879 87.427 157.436 87.4179H157.445ZM271.163 86.5255C269.957 86.5255 268.491 86.2912 266.711 85.8122C263.009 85.5383 259.922 84.3116 257.532 82.165C254.795 79.6859 253.498 76.4797 253.667 72.6309C253.818 68.6202 255.134 63.2433 257.689 56.2039C260.516 48.5028 263.409 43.076 266.534 39.6079C268.351 37.5578 269.911 36.5982 271.43 36.5982C273.034 36.5982 274.988 37.6525 277.678 39.9887C278.54 39.6131 279.701 39.1273 281.158 38.5157L281.226 38.4881L281.293 38.4657C282.706 37.9936 283.755 37.7766 284.594 37.7766C286.713 37.7766 288.773 39.3409 290.894 42.5591C292.22 44.4653 292.885 46.7531 292.789 49.0731C292.71 52.4447 291.928 56.7293 290.415 62.1751C288.02 70.7238 284.558 77.4789 280.113 82.2563C277.472 85.0886 274.462 86.5255 271.154 86.5255H271.163ZM271.723 49.8621C270.246 52.0932 268.83 55.0186 267.499 58.5882C266.155 62.2062 265.214 65.4795 264.701 68.3084V68.3394C264.355 70.0097 264.171 71.7093 264.15 73.4148C264.15 79.4654 266.217 79.4654 266.997 79.4654H267.17H267.202C268.172 79.4395 269.296 79.0123 270.541 78.1922C273.199 76.3832 275.783 72.5706 278.221 66.8629C280.633 61.3206 282.125 55.7766 282.673 50.3704C282.974 47.4795 283.038 46.4079 283.038 46.022C283.038 45.9548 283.038 45.8928 283.038 45.8376L282.85 45.879L274.691 49.1954C273.165 49.8191 272.734 49.9293 272.279 49.9293C272.092 49.9285 271.905 49.9059 271.723 49.8621ZM202.609 86.4721C201.816 86.4528 201.036 86.2686 200.318 85.9311L200.256 85.9053L200.197 85.8742C198.097 84.7854 196.774 83.9102 196.033 83.1177C194.893 81.9204 194.31 80.3285 194.31 78.3834C194.31 75.2513 194.813 71.4835 195.806 67.1851V67.1661C196.448 64.4958 197.994 64.0961 198.855 64.0961C199.487 64.0961 200.161 64.3045 201.467 65.2073C202.895 60.3955 204.311 55.7594 205.696 51.3576C205.259 51.5413 204.828 51.7314 204.404 51.9278C203.448 52.3689 202.528 52.8857 201.553 53.4318C200.76 53.8746 199.942 54.3329 199.093 54.755C198.74 54.9335 198.351 55.0267 197.956 55.0272C197.401 55.0281 196.863 54.8417 196.428 54.4983C195.766 54.3143 195.169 53.9484 194.705 53.4422L194.662 53.3957C189.711 47.5725 187.502 43.8254 187.502 41.2498C187.502 38.5312 189.116 35.7557 192.438 32.7666C198.435 27.338 207.176 21.2823 218.424 14.7649C220.772 9.3759 222.235 7.52903 224.109 7.52903C225.067 7.52903 226.176 7.97697 228.456 10.0478L233.164 7.90805C235.075 7.07765 236.646 6.67279 237.967 6.67279C239.919 6.67279 242.274 7.5566 245.16 9.37073C245.295 9.35598 245.43 9.34851 245.566 9.34833C248.13 9.34833 251.46 11.2796 256.044 15.4247C258.683 17.8522 260.006 20.557 260.006 23.4772C260.002 24.2268 259.944 24.9753 259.834 25.7168C258.707 34.1397 255.956 43.3378 251.656 53.058C247.761 61.896 243.363 69.5815 238.582 75.8991C233.366 82.7904 229.267 86.031 225.684 86.0775H225.658C221.695 86.0775 216.391 83.8138 209.464 79.1587L209.419 79.1277C208.385 78.3972 208.018 77.5306 207.894 76.8725C207.484 78.7033 207.116 80.4692 206.788 82.1702C206.056 85.9173 203.856 86.4721 202.611 86.4721H202.609ZM211.812 72.6103C212.491 72.6141 213.16 72.777 213.766 73.0858L213.852 73.1288L213.934 73.1805C216.325 74.6738 219.058 75.5286 221.873 75.6631H221.976C224.009 75.6631 228.681 73.2511 237.137 57.0842C243.874 44.2354 247.835 32.646 248.908 22.6278C249.081 21.0049 248.774 18.9341 244.808 17.3026C244.377 17.1228 243.919 17.0174 243.452 16.9908H243.358C236.983 17.8883 230.726 20.2004 224.752 23.8648C222.838 28.463 220.891 33.6022 218.946 39.1858C219.98 39.0273 221.036 38.8981 222.102 38.8034C223.244 38.7 224.399 38.6432 225.53 38.6311H225.809C225.968 38.6311 226.128 38.6311 226.292 38.6311C226.95 38.6142 227.606 38.7003 228.237 38.8861C230.251 39.539 231.539 41.2136 231.772 43.4791C232.005 45.7446 230.321 47.4209 228.554 48.1135C228.247 48.2303 227.926 48.3056 227.599 48.3375L227.505 48.3495C227.361 48.3676 227.217 48.3762 227.072 48.3754C226.611 48.3653 226.151 48.3291 225.694 48.2668C225.177 48.2169 224.636 48.1755 224.104 48.1479C223.415 48.11 222.707 48.0911 222.011 48.0911C221.604 48.0911 221.191 48.0911 220.782 48.11C219.828 48.1411 218.86 48.2065 217.905 48.3082C217.656 48.334 217.408 48.3633 217.158 48.3943L216.841 48.4408C216.627 48.4718 216.417 48.5046 216.207 48.539L215.821 48.5993C215.516 49.5469 215.211 50.5099 214.906 51.4782C212.312 59.7356 210.199 67.2781 208.601 74.0057C209.255 73.1219 210.392 72.6103 211.814 72.6103H211.812ZM199.408 41.8976C198.767 42.5757 198.416 43.4779 198.431 44.4112C198.431 45.3553 198.752 46.4871 199.386 47.7793C200.311 47.0608 201.262 46.401 202.183 45.7808C204.08 44.5195 206.078 43.4155 208.155 42.4799L208.632 42.2628C209.926 38.3434 211.216 34.5859 212.468 31.0317C207.04 34.7703 202.661 38.4123 199.415 41.8976H199.408ZM289.133 38.1074C288.595 38.1129 288.062 38.0067 287.567 37.7956C287.072 37.5844 286.626 37.2729 286.258 36.8807L286.163 36.7791C284.825 35.3474 283.555 33.9915 282.568 32.0551C281.695 32.7616 280.745 33.3667 279.735 33.8589C277.629 34.865 274.25 35.2234 271.999 35.2234C271.383 35.227 270.767 35.1948 270.155 35.1269C269.57 35.0313 269.036 34.7377 268.642 34.2952C268.248 33.8527 268.018 33.2881 267.99 32.6962C267.963 32.1043 268.14 31.5209 268.491 31.0438C268.843 30.5667 269.347 30.2248 269.921 30.0756C271.73 29.6862 275.106 28.1805 276.082 27.1606C277.041 26.1513 277.924 25.0728 278.724 23.9337C278.905 23.1601 279.276 22.4438 279.804 21.8504C280.332 21.257 281 20.8052 281.748 20.5363C282.192 20.3862 282.657 20.3099 283.126 20.3106C284.274 20.3223 285.377 20.7551 286.227 21.5269C286.906 22.1425 287.386 22.947 287.605 23.8373C287.823 24.7276 287.771 25.663 287.453 26.5231C288.205 27.4517 289.192 28.2907 290.222 29.1659C290.811 29.6638 291.428 30.1807 291.993 30.7251C292.79 31.5005 293.261 32.5501 293.311 33.6606C293.361 34.7712 292.987 35.8591 292.263 36.7033C291.873 37.1487 291.391 37.5051 290.85 37.7485C290.31 37.9919 289.724 38.1166 289.131 38.1142L289.133 38.1074ZM97.615 32.9389C97.057 32.9384 96.5005 32.8807 95.9542 32.7666C94.6762 32.5251 93.4663 32.0078 92.4088 31.2505L92.345 31.2057L92.2865 31.1541C91.8728 30.8084 91.527 30.389 91.2666 29.9171C90.6791 28.83 90.9496 27.9531 91.1632 27.5275L91.2425 27.369L91.3493 27.2277C91.71 26.7533 92.238 26.4342 92.8257 26.3353C95.7027 23.8148 97.6184 21.9852 98.5246 20.8947L98.5659 20.8447C99.6582 19.6094 100.633 18.7773 101.815 18.7773C102.775 18.7773 104.055 19.2304 107.142 21.4477L107.178 21.4753C108.541 22.4969 108.827 23.6856 108.827 24.504C108.827 26.3336 107.25 28.1977 103.39 30.9353L103.362 30.9559C101.448 32.2653 99.5135 32.9286 97.6167 32.9286L97.615 32.9389Z"/>
</mask>
<path d="M69.2979 88.505C67.8887 88.505 66.4484 87.8899 64.8962 86.6219C60.386 83.0264 55.2935 77.2584 49.7583 69.4799C44.8346 62.5576 41.2306 57.9267 39.0168 55.6801C38.2898 55.9248 37.5302 56.059 36.7634 56.0781C36.0103 56.0841 35.2724 55.8656 34.644 55.4504C34.0156 55.0352 33.5252 54.4422 33.2352 53.7471C31.2575 59.6771 29.5916 65.5157 28.2581 71.1924C26.6129 78.1956 26.4027 80.6093 26.4182 81.419C26.6359 82.0461 26.7522 82.7039 26.7628 83.3675C26.7628 85.5004 25.264 86.4686 23.872 86.4686C22.6316 86.4686 21.1397 85.7502 19.0379 84.1411C16.5571 82.2925 15.458 80.7489 15.458 79.1397C15.458 78.3645 15.6303 77.3894 16.0179 76.0731C18.9466 65.7689 22.6299 54.6981 26.9833 43.1759L26.9971 43.1414C29.4468 37.0151 32.0844 30.4081 34.8563 23.4513C26.9178 25.6583 21.0914 28.2201 17.496 31.0851L17.4788 31.0989C16.2729 32.0413 15.8353 32.7614 15.8353 33.1215C15.8353 33.4144 15.9352 34.5687 16.8689 38.9619C17.1963 40.4383 16.7656 41.3738 16.3435 41.901C15.9214 42.4282 15.1531 43.0208 13.7593 43.0208C12.3656 43.0208 11.1562 42.3214 10.4068 41.0517C9.10787 38.9843 7.82269 36.1106 6.48582 32.2756L6.47204 32.2377L6.45998 32.1998C6.16903 31.2856 6.01405 30.3336 6 29.3744C6 25.8271 8.5049 23.012 13.4441 21.0101C14.9549 20.3847 22.2457 17.909 35.7212 13.4745C39.1495 12.3443 40.6018 11.1917 41.2151 10.4251L41.2306 10.4061C42.4589 8.91073 43.6597 8.1837 44.9018 8.1837C45.9182 8.1837 47.0001 8.62302 48.2129 9.52923C49.2087 10.2442 50.5214 11.3726 50.5214 12.9473C50.5214 13.7725 50.2027 14.739 49.4878 16.0777L49.4723 16.107C45.1085 23.9337 40.8584 33.2473 36.8203 43.7961C37.956 43.373 39.123 43.0389 40.3106 42.7969H40.3433C40.6524 42.7342 40.9669 42.7019 41.2823 42.7004C41.7682 42.6977 42.2504 42.7866 42.7035 42.9623C46.5419 39.887 50.8832 35.8522 55.6243 30.9473C60.2413 26.2061 62.6377 23.3307 63.866 21.5907C62.0157 20.2538 61.2009 19.0478 61.2009 17.7092C61.2009 16.784 61.6109 15.1697 64.2605 14.4358C65.8541 13.2643 67.7801 11.4054 69.9922 8.90557C71.41 7.29128 73.0259 6.47122 74.7935 6.47122C76.7127 6.47122 78.6249 7.44806 80.6354 9.46031C81.3435 10.1701 82.2858 11.2693 82.2858 12.6269C82.2858 13.5882 81.8362 14.7408 79.5983 17.511C75.6359 22.4004 69.7596 28.7094 62.1105 36.2433C55.943 42.3231 51.4862 46.4303 48.5816 48.7096C51.4328 52.7548 54.3288 56.8757 57.2058 60.9864C61.9933 67.7381 66.1383 72.3036 69.5201 74.545L69.5425 74.5605C70.7484 75.384 71.8269 75.8216 72.6521 75.8216C73.2137 75.8216 74.2302 75.5701 75.8788 74.3779L75.9047 74.3589C76.5283 73.8969 77.2805 73.641 78.0564 73.6267C79.9136 73.6267 81.1574 74.874 81.1574 76.7278C81.1576 76.9007 81.1455 77.0734 81.1212 77.2446C82.6855 73.9024 84.41 69.0595 86.2654 62.7919C88.1604 56.2917 89.3543 51.1956 89.8212 47.6121L87.7849 49.5159C87.0458 50.1895 86.1465 50.8769 85.0836 50.8769C83.9379 50.8769 82.7062 50.043 82.7062 48.21C82.7062 47.4847 82.9887 46.7525 83.5675 45.9703C85.2645 43.5883 87.0935 41.3031 89.0459 39.1255L89.077 39.0928C90.0331 38.0746 91.0771 37.5595 92.1779 37.5595C93.1358 37.5595 94.1798 37.9713 95.5339 38.8895C97.7735 39.4822 98.1353 39.6389 98.4385 39.8198C99.448 40.4349 100.633 41.7029 100.633 44.2992C100.624 45.1487 100.543 45.9959 100.39 46.8317C99.746 50.46 98.323 55.8937 96.1644 63.0469C96.3657 62.9975 96.5722 62.9726 96.7794 62.9728C97.1861 62.962 97.589 63.0543 97.9504 63.2411C98.3119 63.4278 98.6202 63.703 98.8468 64.041C99.6582 65.271 99.0466 66.6975 98.8175 67.2333L98.7985 67.273C98.6779 67.5383 98.4781 67.9793 94.1798 74.8361C92.1125 78.1336 90.593 81.0779 89.6455 83.5812L89.6369 83.6018C89.0184 85.1851 87.7022 86.093 86.019 86.093C84.8131 86.093 83.3608 85.6089 81.5881 84.6166C80.4149 83.9843 79.1762 83.1901 79.1762 81.7567C79.1762 81.3139 79.2968 80.8539 79.6 80.2062C78.2683 81.929 76.0959 84.1187 73.0122 86.8683C71.8321 87.9554 70.5762 88.505 69.2979 88.505ZM157.445 87.4179C156.832 87.4179 156.082 87.2766 155.086 86.9751C152.437 86.1688 149.987 85.1231 149.987 82.9386C149.987 82.2598 150.19 81.469 150.63 80.4456C153.352 74.0398 155.618 67.4497 157.412 60.7245C159.18 54.1365 160.088 48.9956 160.088 45.4311C160.015 45.4845 159.936 45.5465 159.85 45.6188C156.969 47.955 153.141 52.6376 148.456 59.5444C142.815 67.8983 138.779 75.8044 136.456 83.0402C136.084 84.3082 135.714 85.1352 134.942 85.6003L134.875 85.6399L134.806 85.6744C134.455 85.8456 134.068 85.9323 133.678 85.9277C133.161 85.9277 132.556 85.7967 131.717 85.5056C130.303 85.0044 128.965 84.3085 127.743 83.4382L127.72 83.4209C126.387 82.4441 126.106 81.3432 126.106 80.5921C126.106 80.1476 126.137 80.0218 127.054 77.7598C131.433 66.7975 133.738 56.035 133.908 45.7584C130.406 48.887 126.451 54.1347 122.139 61.3775C117.733 68.7184 114.41 75.6769 112.253 82.0806C111.893 83.1419 110.937 85.9432 108.611 85.9432C107.728 85.9432 106.453 85.6124 103.143 83.2194C101.694 82.358 101.386 81.2933 101.386 80.5387C101.386 79.6325 101.836 78.7418 102.88 77.5978C104.249 74.5829 105.836 69.4041 107.595 62.1958C108.94 56.657 109.79 52.1018 110.139 48.5855C109.237 49.447 108.53 50.1361 108.033 50.6426C107.171 51.504 106.31 51.9175 105.4 51.9175C104.06 51.9175 102.616 50.963 102.616 48.8664C102.609 47.8061 103.009 46.7835 103.734 46.0099L103.767 45.9737C105.865 43.7667 107.784 41.3967 109.507 38.8861L109.521 38.8671C110.234 37.8679 111.373 36.5396 113.006 36.5396C113.964 36.5396 114.901 37.0806 116.386 38.5157L118.741 39.3702L118.831 39.4133C120.283 40.1024 121.083 41.4427 121.083 43.1811C121.08 43.5997 121.036 44.017 120.95 44.4267C120.645 46.7616 120.285 49.0519 119.868 51.2973C123.808 45.3983 127.588 40.8415 131.161 37.687C132.279 36.6791 133.461 36.1675 134.673 36.1675C135.819 36.1675 137.166 36.6843 139.027 37.8386C140.703 38.5846 141.783 39.2599 142.438 39.9577L142.474 39.9973L142.509 40.0369C143.358 41.0568 143.771 42.4489 143.771 44.3026C143.78 47.6136 143.591 50.9222 143.205 54.2105C148.097 47.209 152.69 41.6822 156.916 37.7214C158.031 36.6602 159.283 36.1158 160.625 36.1158C162.102 36.1158 163.697 36.8618 165.487 38.3916C168.875 39.1479 170.702 41.677 170.522 45.4156C170.25 50.952 169.384 56.4431 167.938 61.7944C168.209 61.7273 168.487 61.6937 168.765 61.6945C170.404 61.6945 171.549 62.8608 171.549 64.532C171.549 65.2831 171.289 66.0549 170.752 66.887L170.731 66.9181C168.464 70.3017 165.008 76.3936 160.458 85.0387L160.444 85.0662C159.846 86.1602 159.454 86.827 158.721 87.1509C158.319 87.3357 157.879 87.427 157.436 87.4179H157.445ZM271.163 86.5255C269.957 86.5255 268.491 86.2912 266.711 85.8122C263.009 85.5383 259.922 84.3116 257.532 82.165C254.795 79.6859 253.498 76.4797 253.667 72.6309C253.818 68.6202 255.134 63.2433 257.689 56.2039C260.516 48.5028 263.409 43.076 266.534 39.6079C268.351 37.5578 269.911 36.5982 271.43 36.5982C273.034 36.5982 274.988 37.6525 277.678 39.9887C278.54 39.6131 279.701 39.1273 281.158 38.5157L281.226 38.4881L281.293 38.4657C282.706 37.9936 283.755 37.7766 284.594 37.7766C286.713 37.7766 288.773 39.3409 290.894 42.5591C292.22 44.4653 292.885 46.7531 292.789 49.0731C292.71 52.4447 291.928 56.7293 290.415 62.1751C288.02 70.7238 284.558 77.4789 280.113 82.2563C277.472 85.0886 274.462 86.5255 271.154 86.5255H271.163ZM271.723 49.8621C270.246 52.0932 268.83 55.0186 267.499 58.5882C266.155 62.2062 265.214 65.4795 264.701 68.3084V68.3394C264.355 70.0097 264.171 71.7093 264.15 73.4148C264.15 79.4654 266.217 79.4654 266.997 79.4654H267.17H267.202C268.172 79.4395 269.296 79.0123 270.541 78.1922C273.199 76.3832 275.783 72.5706 278.221 66.8629C280.633 61.3206 282.125 55.7766 282.673 50.3704C282.974 47.4795 283.038 46.4079 283.038 46.022C283.038 45.9548 283.038 45.8928 283.038 45.8376L282.85 45.879L274.691 49.1954C273.165 49.8191 272.734 49.9293 272.279 49.9293C272.092 49.9285 271.905 49.9059 271.723 49.8621ZM202.609 86.4721C201.816 86.4528 201.036 86.2686 200.318 85.9311L200.256 85.9053L200.197 85.8742C198.097 84.7854 196.774 83.9102 196.033 83.1177C194.893 81.9204 194.31 80.3285 194.31 78.3834C194.31 75.2513 194.813 71.4835 195.806 67.1851V67.1661C196.448 64.4958 197.994 64.0961 198.855 64.0961C199.487 64.0961 200.161 64.3045 201.467 65.2073C202.895 60.3955 204.311 55.7594 205.696 51.3576C205.259 51.5413 204.828 51.7314 204.404 51.9278C203.448 52.3689 202.528 52.8857 201.553 53.4318C200.76 53.8746 199.942 54.3329 199.093 54.755C198.74 54.9335 198.351 55.0267 197.956 55.0272C197.401 55.0281 196.863 54.8417 196.428 54.4983C195.766 54.3143 195.169 53.9484 194.705 53.4422L194.662 53.3957C189.711 47.5725 187.502 43.8254 187.502 41.2498C187.502 38.5312 189.116 35.7557 192.438 32.7666C198.435 27.338 207.176 21.2823 218.424 14.7649C220.772 9.3759 222.235 7.52903 224.109 7.52903C225.067 7.52903 226.176 7.97697 228.456 10.0478L233.164 7.90805C235.075 7.07765 236.646 6.67279 237.967 6.67279C239.919 6.67279 242.274 7.5566 245.16 9.37073C245.295 9.35598 245.43 9.34851 245.566 9.34833C248.13 9.34833 251.46 11.2796 256.044 15.4247C258.683 17.8522 260.006 20.557 260.006 23.4772C260.002 24.2268 259.944 24.9753 259.834 25.7168C258.707 34.1397 255.956 43.3378 251.656 53.058C247.761 61.896 243.363 69.5815 238.582 75.8991C233.366 82.7904 229.267 86.031 225.684 86.0775H225.658C221.695 86.0775 216.391 83.8138 209.464 79.1587L209.419 79.1277C208.385 78.3972 208.018 77.5306 207.894 76.8725C207.484 78.7033 207.116 80.4692 206.788 82.1702C206.056 85.9173 203.856 86.4721 202.611 86.4721H202.609ZM211.812 72.6103C212.491 72.6141 213.16 72.777 213.766 73.0858L213.852 73.1288L213.934 73.1805C216.325 74.6738 219.058 75.5286 221.873 75.6631H221.976C224.009 75.6631 228.681 73.2511 237.137 57.0842C243.874 44.2354 247.835 32.646 248.908 22.6278C249.081 21.0049 248.774 18.9341 244.808 17.3026C244.377 17.1228 243.919 17.0174 243.452 16.9908H243.358C236.983 17.8883 230.726 20.2004 224.752 23.8648C222.838 28.463 220.891 33.6022 218.946 39.1858C219.98 39.0273 221.036 38.8981 222.102 38.8034C223.244 38.7 224.399 38.6432 225.53 38.6311H225.809C225.968 38.6311 226.128 38.6311 226.292 38.6311C226.95 38.6142 227.606 38.7003 228.237 38.8861C230.251 39.539 231.539 41.2136 231.772 43.4791C232.005 45.7446 230.321 47.4209 228.554 48.1135C228.247 48.2303 227.926 48.3056 227.599 48.3375L227.505 48.3495C227.361 48.3676 227.217 48.3762 227.072 48.3754C226.611 48.3653 226.151 48.3291 225.694 48.2668C225.177 48.2169 224.636 48.1755 224.104 48.1479C223.415 48.11 222.707 48.0911 222.011 48.0911C221.604 48.0911 221.191 48.0911 220.782 48.11C219.828 48.1411 218.86 48.2065 217.905 48.3082C217.656 48.334 217.408 48.3633 217.158 48.3943L216.841 48.4408C216.627 48.4718 216.417 48.5046 216.207 48.539L215.821 48.5993C215.516 49.5469 215.211 50.5099 214.906 51.4782C212.312 59.7356 210.199 67.2781 208.601 74.0057C209.255 73.1219 210.392 72.6103 211.814 72.6103H211.812ZM199.408 41.8976C198.767 42.5757 198.416 43.4779 198.431 44.4112C198.431 45.3553 198.752 46.4871 199.386 47.7793C200.311 47.0608 201.262 46.401 202.183 45.7808C204.08 44.5195 206.078 43.4155 208.155 42.4799L208.632 42.2628C209.926 38.3434 211.216 34.5859 212.468 31.0317C207.04 34.7703 202.661 38.4123 199.415 41.8976H199.408ZM289.133 38.1074C288.595 38.1129 288.062 38.0067 287.567 37.7956C287.072 37.5844 286.626 37.2729 286.258 36.8807L286.163 36.7791C284.825 35.3474 283.555 33.9915 282.568 32.0551C281.695 32.7616 280.745 33.3667 279.735 33.8589C277.629 34.865 274.25 35.2234 271.999 35.2234C271.383 35.227 270.767 35.1948 270.155 35.1269C269.57 35.0313 269.036 34.7377 268.642 34.2952C268.248 33.8527 268.018 33.2881 267.99 32.6962C267.963 32.1043 268.14 31.5209 268.491 31.0438C268.843 30.5667 269.347 30.2248 269.921 30.0756C271.73 29.6862 275.106 28.1805 276.082 27.1606C277.041 26.1513 277.924 25.0728 278.724 23.9337C278.905 23.1601 279.276 22.4438 279.804 21.8504C280.332 21.257 281 20.8052 281.748 20.5363C282.192 20.3862 282.657 20.3099 283.126 20.3106C284.274 20.3223 285.377 20.7551 286.227 21.5269C286.906 22.1425 287.386 22.947 287.605 23.8373C287.823 24.7276 287.771 25.663 287.453 26.5231C288.205 27.4517 289.192 28.2907 290.222 29.1659C290.811 29.6638 291.428 30.1807 291.993 30.7251C292.79 31.5005 293.261 32.5501 293.311 33.6606C293.361 34.7712 292.987 35.8591 292.263 36.7033C291.873 37.1487 291.391 37.5051 290.85 37.7485C290.31 37.9919 289.724 38.1166 289.131 38.1142L289.133 38.1074ZM97.615 32.9389C97.057 32.9384 96.5005 32.8807 95.9542 32.7666C94.6762 32.5251 93.4663 32.0078 92.4088 31.2505L92.345 31.2057L92.2865 31.1541C91.8728 30.8084 91.527 30.389 91.2666 29.9171C90.6791 28.83 90.9496 27.9531 91.1632 27.5275L91.2425 27.369L91.3493 27.2277C91.71 26.7533 92.238 26.4342 92.8257 26.3353C95.7027 23.8148 97.6184 21.9852 98.5246 20.8947L98.5659 20.8447C99.6582 19.6094 100.633 18.7773 101.815 18.7773C102.775 18.7773 104.055 19.2304 107.142 21.4477L107.178 21.4753C108.541 22.4969 108.827 23.6856 108.827 24.504C108.827 26.3336 107.25 28.1977 103.39 30.9353L103.362 30.9559C101.448 32.2653 99.5135 32.9286 97.6167 32.9286L97.615 32.9389Z" fill="#E73961"/>
<path d="M69.2979 88.505C67.8887 88.505 66.4484 87.8899 64.8962 86.6219C60.386 83.0264 55.2935 77.2584 49.7583 69.4799C44.8346 62.5576 41.2306 57.9267 39.0168 55.6801C38.2898 55.9248 37.5302 56.059 36.7634 56.0781C36.0103 56.0841 35.2724 55.8656 34.644 55.4504C34.0156 55.0352 33.5252 54.4422 33.2352 53.7471C31.2575 59.6771 29.5916 65.5157 28.2581 71.1924C26.6129 78.1956 26.4027 80.6093 26.4182 81.419C26.6359 82.0461 26.7522 82.7039 26.7628 83.3675C26.7628 85.5004 25.264 86.4686 23.872 86.4686C22.6316 86.4686 21.1397 85.7502 19.0379 84.1411C16.5571 82.2925 15.458 80.7489 15.458 79.1397C15.458 78.3645 15.6303 77.3894 16.0179 76.0731C18.9466 65.7689 22.6299 54.6981 26.9833 43.1759L26.9971 43.1414C29.4468 37.0151 32.0844 30.4081 34.8563 23.4513C26.9178 25.6583 21.0914 28.2201 17.496 31.0851L17.4788 31.0989C16.2729 32.0413 15.8353 32.7614 15.8353 33.1215C15.8353 33.4144 15.9352 34.5687 16.8689 38.9619C17.1963 40.4383 16.7656 41.3738 16.3435 41.901C15.9214 42.4282 15.1531 43.0208 13.7593 43.0208C12.3656 43.0208 11.1562 42.3214 10.4068 41.0517C9.10787 38.9843 7.82269 36.1106 6.48582 32.2756L6.47204 32.2377L6.45998 32.1998C6.16903 31.2856 6.01405 30.3336 6 29.3744C6 25.8271 8.5049 23.012 13.4441 21.0101C14.9549 20.3847 22.2457 17.909 35.7212 13.4745C39.1495 12.3443 40.6018 11.1917 41.2151 10.4251L41.2306 10.4061C42.4589 8.91073 43.6597 8.1837 44.9018 8.1837C45.9182 8.1837 47.0001 8.62302 48.2129 9.52923C49.2087 10.2442 50.5214 11.3726 50.5214 12.9473C50.5214 13.7725 50.2027 14.739 49.4878 16.0777L49.4723 16.107C45.1085 23.9337 40.8584 33.2473 36.8203 43.7961C37.956 43.373 39.123 43.0389 40.3106 42.7969H40.3433C40.6524 42.7342 40.9669 42.7019 41.2823 42.7004C41.7682 42.6977 42.2504 42.7866 42.7035 42.9623C46.5419 39.887 50.8832 35.8522 55.6243 30.9473C60.2413 26.2061 62.6377 23.3307 63.866 21.5907C62.0157 20.2538 61.2009 19.0478 61.2009 17.7092C61.2009 16.784 61.6109 15.1697 64.2605 14.4358C65.8541 13.2643 67.7801 11.4054 69.9922 8.90557C71.41 7.29128 73.0259 6.47122 74.7935 6.47122C76.7127 6.47122 78.6249 7.44806 80.6354 9.46031C81.3435 10.1701 82.2858 11.2693 82.2858 12.6269C82.2858 13.5882 81.8362 14.7408 79.5983 17.511C75.6359 22.4004 69.7596 28.7094 62.1105 36.2433C55.943 42.3231 51.4862 46.4303 48.5816 48.7096C51.4328 52.7548 54.3288 56.8757 57.2058 60.9864C61.9933 67.7381 66.1383 72.3036 69.5201 74.545L69.5425 74.5605C70.7484 75.384 71.8269 75.8216 72.6521 75.8216C73.2137 75.8216 74.2302 75.5701 75.8788 74.3779L75.9047 74.3589C76.5283 73.8969 77.2805 73.641 78.0564 73.6267C79.9136 73.6267 81.1574 74.874 81.1574 76.7278C81.1576 76.9007 81.1455 77.0734 81.1212 77.2446C82.6855 73.9024 84.41 69.0595 86.2654 62.7919C88.1604 56.2917 89.3543 51.1956 89.8212 47.6121L87.7849 49.5159C87.0458 50.1895 86.1465 50.8769 85.0836 50.8769C83.9379 50.8769 82.7062 50.043 82.7062 48.21C82.7062 47.4847 82.9887 46.7525 83.5675 45.9703C85.2645 43.5883 87.0935 41.3031 89.0459 39.1255L89.077 39.0928C90.0331 38.0746 91.0771 37.5595 92.1779 37.5595C93.1358 37.5595 94.1798 37.9713 95.5339 38.8895C97.7735 39.4822 98.1353 39.6389 98.4385 39.8198C99.448 40.4349 100.633 41.7029 100.633 44.2992C100.624 45.1487 100.543 45.9959 100.39 46.8317C99.746 50.46 98.323 55.8937 96.1644 63.0469C96.3657 62.9975 96.5722 62.9726 96.7794 62.9728C97.1861 62.962 97.589 63.0543 97.9504 63.2411C98.3119 63.4278 98.6202 63.703 98.8468 64.041C99.6582 65.271 99.0466 66.6975 98.8175 67.2333L98.7985 67.273C98.6779 67.5383 98.4781 67.9793 94.1798 74.8361C92.1125 78.1336 90.593 81.0779 89.6455 83.5812L89.6369 83.6018C89.0184 85.1851 87.7022 86.093 86.019 86.093C84.8131 86.093 83.3608 85.6089 81.5881 84.6166C80.4149 83.9843 79.1762 83.1901 79.1762 81.7567C79.1762 81.3139 79.2968 80.8539 79.6 80.2062C78.2683 81.929 76.0959 84.1187 73.0122 86.8683C71.8321 87.9554 70.5762 88.505 69.2979 88.505ZM157.445 87.4179C156.832 87.4179 156.082 87.2766 155.086 86.9751C152.437 86.1688 149.987 85.1231 149.987 82.9386C149.987 82.2598 150.19 81.469 150.63 80.4456C153.352 74.0398 155.618 67.4497 157.412 60.7245C159.18 54.1365 160.088 48.9956 160.088 45.4311C160.015 45.4845 159.936 45.5465 159.85 45.6188C156.969 47.955 153.141 52.6376 148.456 59.5444C142.815 67.8983 138.779 75.8044 136.456 83.0402C136.084 84.3082 135.714 85.1352 134.942 85.6003L134.875 85.6399L134.806 85.6744C134.455 85.8456 134.068 85.9323 133.678 85.9277C133.161 85.9277 132.556 85.7967 131.717 85.5056C130.303 85.0044 128.965 84.3085 127.743 83.4382L127.72 83.4209C126.387 82.4441 126.106 81.3432 126.106 80.5921C126.106 80.1476 126.137 80.0218 127.054 77.7598C131.433 66.7975 133.738 56.035 133.908 45.7584C130.406 48.887 126.451 54.1347 122.139 61.3775C117.733 68.7184 114.41 75.6769 112.253 82.0806C111.893 83.1419 110.937 85.9432 108.611 85.9432C107.728 85.9432 106.453 85.6124 103.143 83.2194C101.694 82.358 101.386 81.2933 101.386 80.5387C101.386 79.6325 101.836 78.7418 102.88 77.5978C104.249 74.5829 105.836 69.4041 107.595 62.1958C108.94 56.657 109.79 52.1018 110.139 48.5855C109.237 49.447 108.53 50.1361 108.033 50.6426C107.171 51.504 106.31 51.9175 105.4 51.9175C104.06 51.9175 102.616 50.963 102.616 48.8664C102.609 47.8061 103.009 46.7835 103.734 46.0099L103.767 45.9737C105.865 43.7667 107.784 41.3967 109.507 38.8861L109.521 38.8671C110.234 37.8679 111.373 36.5396 113.006 36.5396C113.964 36.5396 114.901 37.0806 116.386 38.5157L118.741 39.3702L118.831 39.4133C120.283 40.1024 121.083 41.4427 121.083 43.1811C121.08 43.5997 121.036 44.017 120.95 44.4267C120.645 46.7616 120.285 49.0519 119.868 51.2973C123.808 45.3983 127.588 40.8415 131.161 37.687C132.279 36.6791 133.461 36.1675 134.673 36.1675C135.819 36.1675 137.166 36.6843 139.027 37.8386C140.703 38.5846 141.783 39.2599 142.438 39.9577L142.474 39.9973L142.509 40.0369C143.358 41.0568 143.771 42.4489 143.771 44.3026C143.78 47.6136 143.591 50.9222 143.205 54.2105C148.097 47.209 152.69 41.6822 156.916 37.7214C158.031 36.6602 159.283 36.1158 160.625 36.1158C162.102 36.1158 163.697 36.8618 165.487 38.3916C168.875 39.1479 170.702 41.677 170.522 45.4156C170.25 50.952 169.384 56.4431 167.938 61.7944C168.209 61.7273 168.487 61.6937 168.765 61.6945C170.404 61.6945 171.549 62.8608 171.549 64.532C171.549 65.2831 171.289 66.0549 170.752 66.887L170.731 66.9181C168.464 70.3017 165.008 76.3936 160.458 85.0387L160.444 85.0662C159.846 86.1602 159.454 86.827 158.721 87.1509C158.319 87.3357 157.879 87.427 157.436 87.4179H157.445ZM271.163 86.5255C269.957 86.5255 268.491 86.2912 266.711 85.8122C263.009 85.5383 259.922 84.3116 257.532 82.165C254.795 79.6859 253.498 76.4797 253.667 72.6309C253.818 68.6202 255.134 63.2433 257.689 56.2039C260.516 48.5028 263.409 43.076 266.534 39.6079C268.351 37.5578 269.911 36.5982 271.43 36.5982C273.034 36.5982 274.988 37.6525 277.678 39.9887C278.54 39.6131 279.701 39.1273 281.158 38.5157L281.226 38.4881L281.293 38.4657C282.706 37.9936 283.755 37.7766 284.594 37.7766C286.713 37.7766 288.773 39.3409 290.894 42.5591C292.22 44.4653 292.885 46.7531 292.789 49.0731C292.71 52.4447 291.928 56.7293 290.415 62.1751C288.02 70.7238 284.558 77.4789 280.113 82.2563C277.472 85.0886 274.462 86.5255 271.154 86.5255H271.163ZM271.723 49.8621C270.246 52.0932 268.83 55.0186 267.499 58.5882C266.155 62.2062 265.214 65.4795 264.701 68.3084V68.3394C264.355 70.0097 264.171 71.7093 264.15 73.4148C264.15 79.4654 266.217 79.4654 266.997 79.4654H267.17H267.202C268.172 79.4395 269.296 79.0123 270.541 78.1922C273.199 76.3832 275.783 72.5706 278.221 66.8629C280.633 61.3206 282.125 55.7766 282.673 50.3704C282.974 47.4795 283.038 46.4079 283.038 46.022C283.038 45.9548 283.038 45.8928 283.038 45.8376L282.85 45.879L274.691 49.1954C273.165 49.8191 272.734 49.9293 272.279 49.9293C272.092 49.9285 271.905 49.9059 271.723 49.8621ZM202.609 86.4721C201.816 86.4528 201.036 86.2686 200.318 85.9311L200.256 85.9053L200.197 85.8742C198.097 84.7854 196.774 83.9102 196.033 83.1177C194.893 81.9204 194.31 80.3285 194.31 78.3834C194.31 75.2513 194.813 71.4835 195.806 67.1851V67.1661C196.448 64.4958 197.994 64.0961 198.855 64.0961C199.487 64.0961 200.161 64.3045 201.467 65.2073C202.895 60.3955 204.311 55.7594 205.696 51.3576C205.259 51.5413 204.828 51.7314 204.404 51.9278C203.448 52.3689 202.528 52.8857 201.553 53.4318C200.76 53.8746 199.942 54.3329 199.093 54.755C198.74 54.9335 198.351 55.0267 197.956 55.0272C197.401 55.0281 196.863 54.8417 196.428 54.4983C195.766 54.3143 195.169 53.9484 194.705 53.4422L194.662 53.3957C189.711 47.5725 187.502 43.8254 187.502 41.2498C187.502 38.5312 189.116 35.7557 192.438 32.7666C198.435 27.338 207.176 21.2823 218.424 14.7649C220.772 9.3759 222.235 7.52903 224.109 7.52903C225.067 7.52903 226.176 7.97697 228.456 10.0478L233.164 7.90805C235.075 7.07765 236.646 6.67279 237.967 6.67279C239.919 6.67279 242.274 7.5566 245.16 9.37073C245.295 9.35598 245.43 9.34851 245.566 9.34833C248.13 9.34833 251.46 11.2796 256.044 15.4247C258.683 17.8522 260.006 20.557 260.006 23.4772C260.002 24.2268 259.944 24.9753 259.834 25.7168C258.707 34.1397 255.956 43.3378 251.656 53.058C247.761 61.896 243.363 69.5815 238.582 75.8991C233.366 82.7904 229.267 86.031 225.684 86.0775H225.658C221.695 86.0775 216.391 83.8138 209.464 79.1587L209.419 79.1277C208.385 78.3972 208.018 77.5306 207.894 76.8725C207.484 78.7033 207.116 80.4692 206.788 82.1702C206.056 85.9173 203.856 86.4721 202.611 86.4721H202.609ZM211.812 72.6103C212.491 72.6141 213.16 72.777 213.766 73.0858L213.852 73.1288L213.934 73.1805C216.325 74.6738 219.058 75.5286 221.873 75.6631H221.976C224.009 75.6631 228.681 73.2511 237.137 57.0842C243.874 44.2354 247.835 32.646 248.908 22.6278C249.081 21.0049 248.774 18.9341 244.808 17.3026C244.377 17.1228 243.919 17.0174 243.452 16.9908H243.358C236.983 17.8883 230.726 20.2004 224.752 23.8648C222.838 28.463 220.891 33.6022 218.946 39.1858C219.98 39.0273 221.036 38.8981 222.102 38.8034C223.244 38.7 224.399 38.6432 225.53 38.6311H225.809C225.968 38.6311 226.128 38.6311 226.292 38.6311C226.95 38.6142 227.606 38.7003 228.237 38.8861C230.251 39.539 231.539 41.2136 231.772 43.4791C232.005 45.7446 230.321 47.4209 228.554 48.1135C228.247 48.2303 227.926 48.3056 227.599 48.3375L227.505 48.3495C227.361 48.3676 227.217 48.3762 227.072 48.3754C226.611 48.3653 226.151 48.3291 225.694 48.2668C225.177 48.2169 224.636 48.1755 224.104 48.1479C223.415 48.11 222.707 48.0911 222.011 48.0911C221.604 48.0911 221.191 48.0911 220.782 48.11C219.828 48.1411 218.86 48.2065 217.905 48.3082C217.656 48.334 217.408 48.3633 217.158 48.3943L216.841 48.4408C216.627 48.4718 216.417 48.5046 216.207 48.539L215.821 48.5993C215.516 49.5469 215.211 50.5099 214.906 51.4782C212.312 59.7356 210.199 67.2781 208.601 74.0057C209.255 73.1219 210.392 72.6103 211.814 72.6103H211.812ZM199.408 41.8976C198.767 42.5757 198.416 43.4779 198.431 44.4112C198.431 45.3553 198.752 46.4871 199.386 47.7793C200.311 47.0608 201.262 46.401 202.183 45.7808C204.08 44.5195 206.078 43.4155 208.155 42.4799L208.632 42.2628C209.926 38.3434 211.216 34.5859 212.468 31.0317C207.04 34.7703 202.661 38.4123 199.415 41.8976H199.408ZM289.133 38.1074C288.595 38.1129 288.062 38.0067 287.567 37.7956C287.072 37.5844 286.626 37.2729 286.258 36.8807L286.163 36.7791C284.825 35.3474 283.555 33.9915 282.568 32.0551C281.695 32.7616 280.745 33.3667 279.735 33.8589C277.629 34.865 274.25 35.2234 271.999 35.2234C271.383 35.227 270.767 35.1948 270.155 35.1269C269.57 35.0313 269.036 34.7377 268.642 34.2952C268.248 33.8527 268.018 33.2881 267.99 32.6962C267.963 32.1043 268.14 31.5209 268.491 31.0438C268.843 30.5667 269.347 30.2248 269.921 30.0756C271.73 29.6862 275.106 28.1805 276.082 27.1606C277.041 26.1513 277.924 25.0728 278.724 23.9337C278.905 23.1601 279.276 22.4438 279.804 21.8504C280.332 21.257 281 20.8052 281.748 20.5363C282.192 20.3862 282.657 20.3099 283.126 20.3106C284.274 20.3223 285.377 20.7551 286.227 21.5269C286.906 22.1425 287.386 22.947 287.605 23.8373C287.823 24.7276 287.771 25.663 287.453 26.5231C288.205 27.4517 289.192 28.2907 290.222 29.1659C290.811 29.6638 291.428 30.1807 291.993 30.7251C292.79 31.5005 293.261 32.5501 293.311 33.6606C293.361 34.7712 292.987 35.8591 292.263 36.7033C291.873 37.1487 291.391 37.5051 290.85 37.7485C290.31 37.9919 289.724 38.1166 289.131 38.1142L289.133 38.1074ZM97.615 32.9389C97.057 32.9384 96.5005 32.8807 95.9542 32.7666C94.6762 32.5251 93.4663 32.0078 92.4088 31.2505L92.345 31.2057L92.2865 31.1541C91.8728 30.8084 91.527 30.389 91.2666 29.9171C90.6791 28.83 90.9496 27.9531 91.1632 27.5275L91.2425 27.369L91.3493 27.2277C91.71 26.7533 92.238 26.4342 92.8257 26.3353C95.7027 23.8148 97.6184 21.9852 98.5246 20.8947L98.5659 20.8447C99.6582 19.6094 100.633 18.7773 101.815 18.7773C102.775 18.7773 104.055 19.2304 107.142 21.4477L107.178 21.4753C108.541 22.4969 108.827 23.6856 108.827 24.504C108.827 26.3336 107.25 28.1977 103.39 30.9353L103.362 30.9559C101.448 32.2653 99.5135 32.9286 97.6167 32.9286L97.615 32.9389Z" stroke="white" stroke-width="11.7349" mask="url(#path-1-outside-1_39_48)"/>
</svg>
