<svg width="10" height="11" viewBox="0 0 10 11" fill="none" xmlns="http://www.w3.org/2000/svg">
<g clip-path="url(#clip0_90_70)">
<path d="M8.44498 8.66229H1.25586V5.46713L4.85042 2.07227L8.44498 5.46713V8.66229Z" fill="#E8EAF6"/>
<path d="M7.84589 5.06825L6.8474 4.06976V2.67188H7.84589V5.06825ZM1.25586 8.66281H8.44498V9.6613H1.25586V8.66281Z" fill="#C5CAE9"/>
<path d="M4.84942 1.73242L0.855469 5.4468L1.25486 5.88614L4.84942 2.55118L8.44398 5.88614L8.84338 5.4468L4.84942 1.73242Z" fill="#B71C1C"/>
<path d="M3.65234 6.46582H6.04872V9.66098H3.65234V6.46582Z" fill="#D84315"/>
<path d="M4.25 4.26953H5.44819V5.46772H4.25V4.26953Z" fill="#01579B"/>
<path d="M5.54907 7.96289C5.48916 7.96289 5.44922 8.00283 5.44922 8.06274V8.46213C5.44922 8.52204 5.48916 8.56198 5.54907 8.56198C5.60898 8.56198 5.64892 8.52204 5.64892 8.46213V8.06274C5.64892 8.00283 5.60898 7.96289 5.54907 7.96289Z" fill="#FF8A65"/>
</g>
<defs>
<clipPath id="clip0_90_70">
<rect width="9.58549" height="9.58549" fill="white" transform="translate(0.0566406 0.874023)"/>
</clipPath>
</defs>
</svg>
