<svg width="870" height="870" viewBox="0 0 870 870" fill="none" xmlns="http://www.w3.org/2000/svg">
<circle cx="435" cy="435" r="435" fill="#FF0000"/>
<g clip-path="url(#clip0_130_695)">
<path d="M459 179C587.1 179 691 282.9 691 411C691 424.3 680.3 435 667 435C653.7 435 643 424.3 643 411C643 309.4 560.6 227 459 227C445.7 227 435 216.3 435 203C435 189.7 445.7 179 459 179ZM467 371C475.487 371 483.626 374.372 489.627 380.373C495.629 386.374 499 394.513 499 403C499 411.487 495.629 419.626 489.627 425.628C483.626 431.629 475.487 435 467 435C458.513 435 450.374 431.629 444.373 425.628C438.371 419.626 435 411.487 435 403C435 394.513 438.371 386.374 444.373 380.373C450.374 374.372 458.513 371 467 371ZM435 299C435 285.7 445.7 275 459 275C534.1 275 595 335.9 595 411C595 424.3 584.3 435 571 435C557.7 435 547 424.3 547 411C547 362.4 507.6 323 459 323C445.7 323 435 312.3 435 299ZM296.5 180.4C315.9 175.1 336.2 185 343.9 203.6L383.9 299.6C390.7 315.9 386 334.8 372.3 345.9L323 386.3C356.3 456.7 413.3 513.7 483.7 547L524 497.7C535.2 484 554 479.3 570.3 486.1L666.3 526.1C684.9 533.8 694.8 554.1 689.5 573.5L665.5 661.5C660.8 678.9 645 691 627 691C379.6 691 179 490.4 179 243C179 225 191.1 209.2 208.5 204.4L296.5 180.4Z" fill="white"/>
</g>
<defs>
<clipPath id="clip0_130_695">
<rect width="512" height="512" fill="white" transform="translate(179 179)"/>
</clipPath>
</defs>
</svg>
