<svg width="87" height="54" viewBox="0 0 87 54" fill="none" xmlns="http://www.w3.org/2000/svg">
<g clip-path="url(#clip0_39_8)">
<path d="M42.5064 53.6504C31.2747 53.6504 20.7146 51.1311 12.7653 46.5599C4.7564 41.9515 0.343933 35.8032 0.343933 29.2477C0.343933 22.6923 4.7564 16.5416 12.7653 11.9332C20.7146 7.36205 31.277 4.84268 42.5064 4.84268C53.7359 4.84268 64.296 7.36205 72.2453 11.9332C80.2565 16.5416 84.6667 22.6899 84.6667 29.2477C84.6667 35.8055 80.2565 41.9515 72.2453 46.5599C64.296 51.1311 53.7336 53.6504 42.5064 53.6504Z" fill="url(#paint0_linear_39_8)"/>
<path d="M42.5063 5.19172C65.6001 5.19172 84.3227 15.9624 84.3227 29.2478C84.3227 42.5332 65.6001 53.3016 42.5063 53.3016C19.4125 53.3016 0.687657 42.5309 0.687657 29.2478C0.687657 15.9647 19.4103 5.19172 42.5063 5.19172ZM42.5063 4.49384C31.2196 4.49384 20.5976 7.02948 12.607 11.6309C4.47435 16.302 0 22.5644 0 29.2478C0 35.9312 4.47435 42.1913 12.607 46.8624C20.6068 51.4638 31.2288 53.9995 42.5155 53.9995C53.8023 53.9995 64.4243 51.4638 72.424 46.8624C80.5475 42.1913 85.0196 35.9289 85.0196 29.2478C85.0196 22.5667 80.5383 16.302 72.4148 11.6309C64.4105 7.02948 53.7931 4.49384 42.5063 4.49384Z" fill="white"/>
<path d="M26.4242 35.4611C26.2884 35.4647 26.157 35.5111 26.0483 35.5937C25.7764 35.8288 25.4408 35.9748 25.0855 36.0125C24.7515 35.9836 24.4329 35.8567 24.1687 35.6473C23.2999 35.0634 22.2501 33.8909 21.0444 32.1578C20.2804 31.0552 19.5163 29.9548 18.7522 28.8568C19.4399 28.3404 20.6043 27.268 22.2868 25.5861C23.8008 24.1052 25.237 22.5444 26.5892 20.9102C27.121 20.2403 27.1944 20.003 27.1944 19.8588C27.1666 19.6224 27.048 19.4066 26.8643 19.2586C26.4288 18.8166 26.007 18.5909 25.6127 18.5909C25.4217 18.5992 25.2347 18.6497 25.0648 18.7389C24.895 18.8281 24.7464 18.9538 24.6294 19.1074C24.1808 19.6473 23.6768 20.137 23.1257 20.5683C22.6283 20.6939 22.5229 20.9451 22.5229 21.1359C22.5229 21.4151 22.7521 21.6965 23.2839 22.0315C22.9515 22.5805 22.2066 23.4599 21.0605 24.6509C20.0086 25.7773 18.8845 26.8319 17.6955 27.8077C17.583 27.729 17.4493 27.6876 17.3127 27.689C17.2527 27.6898 17.1929 27.696 17.1339 27.7076C16.4784 27.8542 16.052 28.0217 15.8228 28.2218C15.7466 28.2875 15.6822 28.3662 15.6326 28.4544C15.7212 28.2047 15.8129 27.9558 15.9076 27.7076C16.8031 25.2624 17.871 22.8857 19.1029 20.5962C19.2283 20.3976 19.3067 20.1723 19.3322 19.9379C19.3322 19.7331 19.1855 19.5331 18.8737 19.3028C18.6902 19.1407 18.4606 19.0421 18.2182 19.0213C17.9889 19.0213 17.7597 19.1702 17.5305 19.4866C17.3013 19.8029 16.7741 20.1007 16.0406 20.345C12.71 21.4592 10.9107 22.078 10.5393 22.2316C9.43219 22.6968 8.87061 23.3086 8.87061 24.074C8.87413 24.288 8.9081 24.5003 8.97146 24.7044C9.21206 25.4578 9.53094 26.183 9.92272 26.8679C9.97995 26.9732 10.0639 27.0611 10.1659 27.1225C10.2678 27.1838 10.3841 27.2164 10.5026 27.2168C10.5824 27.2232 10.6625 27.2106 10.7365 27.1799C10.8106 27.1492 10.8765 27.1013 10.929 27.04C10.9798 26.9673 11.0131 26.8836 11.0262 26.7956C11.0393 26.7075 11.0319 26.6175 11.0046 26.5329C10.8811 26.0322 10.7945 25.5229 10.7456 25.0092C10.7456 24.7975 10.9221 24.5439 11.2591 24.281C12.2585 23.4738 13.9134 22.762 16.1873 22.1664C15.414 24.1298 14.6973 25.9505 14.0372 27.6286C12.9622 30.5224 12.0499 33.2954 11.3278 35.8775C11.2558 36.1035 11.2134 36.3382 11.2018 36.5754C11.2018 36.8802 11.447 37.2082 11.9765 37.6106C12.435 37.9712 12.7673 38.1387 13.0057 38.1387C13.0688 38.1407 13.1315 38.1286 13.1894 38.1035C13.2474 38.0783 13.2993 38.0406 13.3414 37.9929C13.3835 37.9453 13.4149 37.8889 13.4333 37.8277C13.4518 37.7665 13.4568 37.7019 13.4481 37.6385C13.4444 37.4892 13.4165 37.3414 13.3656 37.2012C13.3495 36.9453 13.4206 36.2707 13.824 34.5167C14.2694 32.6114 14.8212 30.7334 15.4767 28.8917C15.4586 29.0016 15.4501 29.113 15.4515 29.2244C15.4515 29.3267 15.4515 29.457 15.4515 29.5989C15.5134 30.3875 15.9374 30.5038 16.185 30.5038C16.4006 30.4938 16.613 30.4466 16.813 30.3643C17.3632 30.89 18.3075 32.109 19.6256 33.9886C20.9802 35.9218 22.2249 37.3524 23.3229 38.2387C23.5716 38.4807 23.896 38.6264 24.2397 38.6505C24.5207 38.6365 24.786 38.5151 24.9824 38.3108C25.8993 37.485 26.4746 36.8662 26.7543 36.4242C26.8491 36.2922 26.9019 36.1339 26.9055 35.9706C26.9119 35.9039 26.904 35.8366 26.8824 35.7732C26.8607 35.7099 26.8259 35.6521 26.7801 35.6037C26.7344 35.5553 26.679 35.5175 26.6175 35.4929C26.5561 35.4683 26.4901 35.4575 26.4242 35.4611Z" fill="white"/>
<path d="M31.332 26.9307C31.1121 26.8311 30.8812 26.7585 30.6444 26.7143C30.4413 26.541 30.1927 26.4319 29.9292 26.4003C29.8196 26.4072 29.7126 26.4372 29.6151 26.4885C29.5176 26.5398 29.4318 26.6111 29.363 26.698C28.8842 27.2397 28.4357 27.8082 28.0198 28.4009C27.9252 28.5114 27.8688 28.6503 27.8593 28.7963C27.8593 29.0848 28.029 29.1872 28.1734 29.1872C28.3615 29.1613 28.5337 29.0661 28.657 28.9196L29.4822 28.138C29.5406 28.0798 29.6018 28.0247 29.6656 27.9728C29.6721 28.0728 29.6721 28.173 29.6656 28.2729C29.5968 29.1918 29.2828 30.6295 28.7327 32.5393C28.1596 34.512 27.6301 35.9357 27.1648 36.7685C27.0696 36.9065 27.0097 37.0664 26.9906 37.2338C26.9906 37.4199 27.1648 37.5525 27.449 37.699C27.7383 37.8886 28.0688 38.0036 28.4118 38.034C28.5514 38.0385 28.6887 37.9972 28.8035 37.9164C28.9182 37.8355 29.0043 37.7194 29.049 37.585C29.3596 36.7999 29.7434 36.0466 30.1951 35.3355C31.1303 33.8234 31.2885 33.5443 31.3205 33.4745C31.3693 33.3933 31.3978 33.3013 31.4034 33.2064C31.4089 33.1115 31.3915 33.0166 31.3526 32.9301C31.3218 32.8837 31.2796 32.8463 31.2301 32.8214C31.1807 32.7965 31.1258 32.7851 31.0707 32.7882C30.9999 32.7922 30.931 32.8127 30.8693 32.8482C30.8077 32.8837 30.755 32.9333 30.7154 32.993C30.5802 33.1791 30.4541 33.3465 30.3372 33.4978C30.8831 31.8283 31.3361 30.1289 31.6942 28.4079C31.7292 28.2136 31.7484 28.0168 31.7515 27.8193C31.7676 27.6465 31.7371 27.4725 31.6632 27.3159C31.5893 27.1594 31.4748 27.0262 31.332 26.9307Z" fill="white"/>
<path d="M75.7297 27.5309C75.2713 26.8074 74.8266 26.4538 74.4002 26.4538C74.1507 26.4699 73.905 26.524 73.6713 26.6143C73.1968 26.812 72.8553 26.9609 72.6398 27.0586C71.9659 26.4445 71.4937 26.1584 71.143 26.1584C70.8496 26.1584 70.5287 26.37 70.1322 26.8237C69.3941 27.6565 68.6766 29.0267 68.0004 30.8993C67.3861 32.6161 67.056 33.977 67.0194 34.9447C66.9889 35.3503 67.0511 35.7575 67.2009 36.1348C67.3508 36.512 67.5844 36.8491 67.8835 37.1198C68.4802 37.6401 69.2337 37.9387 70.0198 37.9666C70.3631 38.0717 70.7183 38.1311 71.0765 38.1434C71.4617 38.1343 71.8405 38.0418 72.1876 37.8721C72.5347 37.7024 72.842 37.4594 73.0891 37.1594C74.1572 35.9962 74.9939 34.3329 75.5761 32.23C75.8929 31.1812 76.0868 30.0982 76.1537 29.0034C76.1754 28.4786 76.0264 27.9612 75.7297 27.5309ZM74.1618 27.9007C74.1939 27.9007 74.2902 27.9007 74.2902 28.245C74.2902 28.352 74.2742 28.6335 74.1985 29.3663C74.0418 30.824 73.6637 32.2482 73.0776 33.5885C72.4519 35.0773 71.778 36.0753 71.0743 36.5615C70.7896 36.7701 70.4545 36.8963 70.1047 36.9267H70.0451C69.8044 36.9267 69.0663 36.9267 69.0663 35.1285C69.0717 34.6821 69.1193 34.2373 69.2084 33.8002C69.3714 32.9498 69.6069 32.1154 69.9121 31.3064C70.2098 30.4359 70.6182 29.6085 71.127 28.8452C71.1889 28.905 71.2707 28.939 71.3562 28.9406C71.5287 28.9153 71.6955 28.8594 71.849 28.7754L73.9005 27.9287C73.9864 27.9096 74.074 27.9003 74.1618 27.9007Z" fill="white"/>
<path d="M48.8744 32.4627C48.7527 32.4692 48.6348 32.5083 48.5329 32.5762C48.431 32.644 48.3487 32.7381 48.2945 32.8489C48.2417 32.9326 48.1821 33.0187 48.118 33.1118C48.6443 31.4846 48.9527 29.7929 49.0348 28.0823C49.0761 27.2472 48.6956 26.7308 47.9369 26.5889C47.5243 26.219 47.1713 26.0375 46.8595 26.0375C46.5825 26.0458 46.3198 26.1645 46.1283 26.3679C44.902 27.531 43.545 29.2525 42.0872 31.4857C42.3088 30.276 42.4155 29.0475 42.4058 27.8171C42.4298 27.4991 42.3421 27.1826 42.1583 26.9238C41.9264 26.7103 41.6564 26.5437 41.3629 26.433C41.0901 26.2238 40.7673 26.0921 40.4277 26.0515C40.1681 26.0644 39.9227 26.1756 39.74 26.3632C38.6329 27.3542 37.4478 28.9221 36.178 31.0158C36.4292 29.9484 36.6243 28.8683 36.7625 27.7799C36.7802 27.695 36.7894 27.6085 36.79 27.5217C36.801 27.3778 36.7685 27.2339 36.6968 27.1092C36.6252 26.9845 36.5177 26.8849 36.3888 26.8238L36.029 26.6912L35.7516 26.5912C35.3711 26.2097 35.2015 26.1259 35.0639 26.1259C34.8531 26.1259 34.6491 26.2748 34.4244 26.5912C33.9893 27.2345 33.5049 27.842 32.9758 28.408C32.8409 28.5494 32.7668 28.7393 32.7695 28.9361C32.7695 29.2943 32.9826 29.4223 33.1844 29.4223C33.2722 29.4166 33.3581 29.3931 33.4368 29.3531C33.5156 29.3132 33.5856 29.2576 33.6428 29.1897C33.7956 29.0346 34.0332 28.8019 34.3557 28.4918L34.6766 28.1777C34.6559 29.1478 34.429 30.5505 33.9889 32.365C33.5305 34.2261 33.1362 35.5567 32.7855 36.3197C32.6108 36.4678 32.4951 36.6753 32.46 36.9036C32.4678 37.0005 32.5019 37.0934 32.5585 37.1718C32.6152 37.2503 32.6922 37.3112 32.7809 37.3479C33.5396 37.9086 33.817 37.983 33.9729 37.983C34.3098 37.983 34.4932 37.5643 34.6147 37.2014C35.2532 35.3668 36.0814 33.606 37.0857 31.9486C38.2318 30.0062 39.2701 28.622 40.1916 27.8358C40.3818 27.6729 40.4689 27.659 40.4896 27.659C40.5072 27.7233 40.5149 27.79 40.5125 27.8567C40.5125 30.5668 39.9348 33.4119 38.7933 36.3104C38.5802 36.8478 38.5802 36.8641 38.5802 36.9152C38.5854 37.0138 38.6142 37.1096 38.6641 37.1943C38.7141 37.279 38.7836 37.3501 38.8667 37.4014C39.1481 37.6066 39.4568 37.7703 39.7836 37.8876C39.9092 37.9399 40.0423 37.9713 40.1778 37.9807C40.2325 37.9821 40.2868 37.9701 40.336 37.9458C40.4506 37.876 40.5194 37.7434 40.6042 37.448C41.1864 35.6102 42.2087 33.598 43.6092 31.4741C44.7851 29.7154 45.7501 28.5197 46.4813 27.9195C46.5854 27.8077 46.7234 27.7348 46.8733 27.7125C46.9191 27.7125 46.9902 27.7125 46.9902 27.9637C47.0062 28.8942 46.7793 30.2504 46.3163 31.9998C45.8671 33.7019 45.3011 35.3701 44.6224 36.992C44.5449 37.1537 44.499 37.3291 44.4871 37.5084C44.4871 37.8039 44.7943 38.0202 45.553 38.2552C45.716 38.3106 45.8856 38.3434 46.0573 38.3529C46.1366 38.357 46.2156 38.3402 46.2865 38.304C46.3415 38.2901 46.3988 38.2249 46.5707 37.9086C47.7008 35.7265 48.5626 34.1865 49.1288 33.3281C49.2215 33.1982 49.2756 33.044 49.2847 32.8838C49.2876 32.8281 49.279 32.7724 49.2595 32.7203C49.24 32.6682 49.2099 32.6208 49.1713 32.5811C49.1327 32.5415 49.0863 32.5105 49.0352 32.4901C48.984 32.4697 48.9293 32.4604 48.8744 32.4627Z" fill="white"/>
<path d="M68.8319 22.5876C68.8319 21.9339 68.5339 21.3244 67.9403 20.7731C66.8744 19.7914 66.0859 19.3168 65.5312 19.3168C65.4777 19.3163 65.4245 19.3234 65.373 19.3378C64.6647 18.8725 64.0985 18.6399 63.6493 18.6399C63.2762 18.6636 62.9115 18.7624 62.5765 18.9307L61.2425 19.5402C60.6167 18.94 60.3783 18.8423 60.2202 18.8423C59.9474 18.8423 59.6402 19.14 59.0305 20.5754C56.2249 22.22 54.0496 23.7461 52.5643 25.1093C51.8032 25.8072 51.4342 26.4329 51.4342 27.0331C51.4342 27.6333 51.9752 28.515 53.1396 29.9038C53.2624 30.0373 53.432 30.1166 53.6118 30.1248C53.6961 30.1274 53.7798 30.1096 53.856 30.0728C53.9321 30.0359 53.9985 29.9812 54.0496 29.9131C54.1018 29.8425 54.1373 29.7607 54.1532 29.6739C54.1691 29.5871 54.165 29.4978 54.1413 29.4129C54.0771 29.2594 53.9946 29.0826 53.88 28.8569C53.7036 28.5415 53.6023 28.1886 53.5843 27.8264C53.5809 27.5214 53.6943 27.227 53.9006 27.0052C55.0937 25.7693 56.4272 24.6816 57.873 23.7647C57.4535 24.9418 57.018 26.2236 56.5779 27.5845L56.2249 28.6871C55.7527 30.1783 55.2622 31.7997 54.7625 33.5141C54.2307 33.0908 54.0748 33.0489 53.9648 33.0489C53.7356 33.0489 53.5636 33.2373 53.4765 33.6072C53.2566 34.5082 53.1351 35.4311 53.1144 36.3592C53.0969 36.7265 53.2229 37.086 53.4651 37.3595C53.7511 37.6173 54.0732 37.8305 54.4209 37.9922C54.5681 38.0656 54.7292 38.1061 54.8931 38.1109C55.1659 38.1109 55.5212 37.9643 55.661 37.2641C56.1872 34.6461 56.8568 32.0599 57.6667 29.5176C57.7744 29.171 57.8821 28.8197 57.9876 28.4987C58.0265 28.401 58.0999 28.1707 58.1801 27.9125C58.2603 27.6542 58.3291 27.4472 58.3979 27.2378C58.9847 25.4745 59.5738 23.874 60.1514 22.4759C61.6073 21.536 63.242 20.9178 64.949 20.6614H65.0017C65.152 20.6684 65.3001 20.7015 65.4395 20.7591C66.3128 21.122 66.7025 21.6548 66.6245 22.3875C66.3564 24.9464 65.3638 27.8845 63.6814 31.1413C61.6299 35.1239 60.3783 35.9591 59.6861 35.9591C58.9291 35.9278 58.193 35.6977 57.5498 35.2914C57.4327 35.2275 57.3022 35.1931 57.1693 35.1914C56.7223 35.1914 56.4656 35.424 56.4656 35.8404C56.4678 35.9386 56.4941 36.0348 56.5421 36.1201C56.5901 36.2053 56.6584 36.2771 56.7406 36.3289C58.4139 37.4688 59.6746 38.0225 60.6007 38.0225C61.3892 38.0225 62.3611 37.2129 63.5805 35.5752C64.8618 33.8131 65.9386 31.9069 66.7896 29.8944C67.768 27.736 68.4424 25.4485 68.7929 23.0994C68.8174 22.9299 68.8304 22.7589 68.8319 22.5876Z" fill="white"/>
<path d="M78.3363 8.89915V3.27698H81.0137C81.296 3.27698 81.5683 3.34554 81.8305 3.48267C82.0977 3.61472 82.3171 3.81279 82.4885 4.07688C82.665 4.3359 82.7532 4.65586 82.7532 5.03676C82.7532 5.41767 82.6625 5.74779 82.4809 6.02712C82.3045 6.30137 82.0776 6.51214 81.8002 6.65942C81.528 6.80671 81.2456 6.88035 80.9532 6.88035H78.8808V6.11092H80.696C80.9532 6.11092 81.1826 6.0195 81.3843 5.83667C81.591 5.64875 81.6944 5.38212 81.6944 5.03676C81.6944 4.68125 81.591 4.42731 81.3843 4.27495C81.1826 4.12259 80.9607 4.04641 80.7187 4.04641H79.3119V8.89915H78.3363ZM81.5885 6.28613L82.9801 8.89915H81.891L80.5372 6.28613H81.5885ZM80.3859 12.2511C79.5489 12.2511 78.7649 12.0937 78.0338 11.7788C77.3026 11.4639 76.6598 11.0271 76.1051 10.4685C75.5505 9.90982 75.1169 9.26228 74.8042 8.52586C74.4916 7.78944 74.3353 6.9997 74.3353 6.15663C74.3353 5.31355 74.4916 4.52381 74.8042 3.78739C75.1169 3.05097 75.5505 2.40344 76.1051 1.84477C76.6598 1.28611 77.3026 0.84934 78.0338 0.534457C78.7649 0.219575 79.5489 0.0621338 80.3859 0.0621338C81.2229 0.0621338 82.007 0.219575 82.7381 0.534457C83.4692 0.84934 84.1121 1.28611 84.6667 1.84477C85.2214 2.40344 85.655 3.05097 85.9676 3.78739C86.2802 4.52381 86.4365 5.31355 86.4365 6.15663C86.4365 6.9997 86.2802 7.78944 85.9676 8.52586C85.655 9.26228 85.2214 9.90982 84.6667 10.4685C84.1121 11.0271 83.4692 11.4639 82.7381 11.7788C82.007 12.0937 81.2229 12.2511 80.3859 12.2511ZM80.3859 11.116C81.2935 11.116 82.1179 10.8926 82.8591 10.4456C83.6053 9.9987 84.2003 9.40194 84.644 8.65537C85.0877 7.90371 85.3096 7.0708 85.3096 6.15663C85.3096 5.24245 85.0877 4.41208 84.644 3.6655C84.2003 2.91385 83.6053 2.31456 82.8591 1.86763C82.1179 1.4207 81.2935 1.19723 80.3859 1.19723C79.4783 1.19723 78.6514 1.4207 77.9052 1.86763C77.164 2.31456 76.5715 2.91385 76.1278 3.6655C75.6841 4.41208 75.4623 5.24245 75.4623 6.15663C75.4623 7.0708 75.6841 7.90371 76.1278 8.65537C76.5715 9.40194 77.164 9.9987 77.9052 10.4456C78.6514 10.8926 79.4783 11.116 80.3859 11.116Z" fill="white"/>
</g>
<defs>
<linearGradient id="paint0_linear_39_8" x1="0.343933" y1="29.2477" x2="84.6667" y2="29.2477" gradientUnits="userSpaceOnUse">
<stop offset="0.02" stop-color="#E73961"/>
<stop offset="0.29" stop-color="#E73961"/>
</linearGradient>
<clipPath id="clip0_39_8">
<rect width="86.5301" height="54" fill="white"/>
</clipPath>
</defs>
</svg>
