<svg width="2270" height="3551" viewBox="0 0 2270 3551" fill="none" xmlns="http://www.w3.org/2000/svg">
<g opacity="0.05">
<path d="M1291.74 211.1C1278.78 246.273 1245.79 264.618 1219.14 254.806C1192.49 244.993 1179.27 209.633 1192.23 174.46C1205.18 139.287 1238.17 120.941 1264.82 130.754C1291.47 140.567 1304.69 175.927 1291.74 211.1Z" stroke="black" stroke-width="9.77395"/>
<path d="M1093.74 2026.79C1080.79 2061.96 1047.8 2080.31 1021.15 2070.5C994.496 2060.68 981.279 2025.32 994.229 1990.15C1007.18 1954.98 1040.17 1936.63 1066.82 1946.45C1093.47 1956.26 1106.69 1991.62 1093.74 2026.79Z" stroke="black" stroke-width="9.77395"/>
<path d="M71.1137 423.088C84.0643 387.915 117.056 369.569 143.707 379.382C170.357 389.195 183.575 424.555 170.624 459.728C157.673 494.901 124.681 513.247 98.0309 503.434C71.3805 493.621 58.163 458.261 71.1137 423.088Z" stroke="black" stroke-width="9.77395"/>
<path d="M1647.69 3029.74C1660.64 2994.57 1693.63 2976.23 1720.28 2986.04C1746.93 2995.85 1760.15 3031.21 1747.2 3066.38C1734.25 3101.56 1701.26 3119.9 1674.61 3110.09C1647.96 3100.28 1634.74 3064.92 1647.69 3029.74Z" stroke="black" stroke-width="9.77395"/>
<path d="M1049.93 3153.03C1062.88 3117.86 1095.87 3099.51 1122.52 3109.32C1149.17 3119.14 1162.39 3154.5 1149.44 3189.67C1136.49 3224.84 1103.5 3243.19 1076.85 3233.38C1050.2 3223.56 1036.98 3188.2 1049.93 3153.03Z" stroke="black" stroke-width="9.77395"/>
<path d="M1765.31 567.8C1778.26 532.627 1811.25 514.281 1837.9 524.094C1864.55 533.907 1877.77 569.267 1864.82 604.44C1851.87 639.613 1818.88 657.959 1792.23 648.146C1765.58 638.333 1752.36 602.973 1765.31 567.8Z" stroke="black" stroke-width="9.77395"/>
<path d="M-7.34507 3470.66C5.60559 3435.49 38.5977 3417.14 65.2481 3426.95C91.8985 3436.77 105.116 3472.13 92.1654 3507.3C79.2147 3542.47 46.2226 3560.82 19.5722 3551.01C-7.07821 3541.19 -20.2957 3505.83 -7.34507 3470.66Z" stroke="black" stroke-width="9.77395"/>
<path d="M631.839 1692.26C644.79 1657.09 677.782 1638.75 704.432 1648.56C731.083 1658.37 744.3 1693.73 731.35 1728.9C718.399 1764.08 685.407 1782.42 658.757 1772.61C632.106 1762.8 618.889 1727.44 631.839 1692.26Z" stroke="black" stroke-width="9.77395"/>
<path d="M1274.08 2383.49C1287.03 2348.31 1320.03 2329.97 1346.68 2339.78C1373.33 2349.59 1386.54 2384.95 1373.59 2420.13C1360.64 2455.3 1327.65 2473.65 1301 2463.83C1274.35 2454.02 1261.13 2418.66 1274.08 2383.49Z" stroke="black" stroke-width="9.77395"/>
<path d="M433.789 1116.31C443.829 1152.42 427.773 1186.59 400.411 1194.19C373.049 1201.8 341.663 1180.83 331.623 1144.72C321.583 1108.6 337.639 1074.44 365 1066.83C392.362 1059.22 423.749 1080.2 433.789 1116.31Z" stroke="black" stroke-width="9.77395"/>
<path d="M1032.42 2811.29C1042.46 2847.4 1026.41 2881.57 999.045 2889.18C971.684 2896.78 940.297 2875.81 930.257 2839.7C920.217 2803.59 936.273 2769.42 963.635 2761.81C990.996 2754.21 1022.38 2775.18 1032.42 2811.29Z" stroke="black" stroke-width="9.77395"/>
<path d="M2122.45 1583.31C2132.49 1619.42 2116.43 1653.59 2089.07 1661.2C2061.71 1668.8 2030.32 1647.83 2020.28 1611.72C2010.24 1575.61 2026.3 1541.44 2053.66 1533.83C2081.02 1526.23 2112.41 1547.2 2122.45 1583.31Z" stroke="black" stroke-width="9.77395"/>
<path d="M-60.9767 806.752C-71.0168 770.64 -54.9605 736.475 -27.5988 728.868C-0.237115 721.26 31.1495 742.235 41.1896 778.346C51.2297 814.458 35.1734 848.623 7.81176 856.23C-19.5499 863.838 -50.9366 842.863 -60.9767 806.752Z" stroke="black" stroke-width="9.77395"/>
<path d="M899.178 3461.97C889.138 3425.86 905.194 3391.7 932.556 3384.09C959.917 3376.48 991.304 3397.46 1001.34 3433.57C1011.38 3469.68 995.328 3503.84 967.966 3511.45C940.605 3519.06 909.218 3498.08 899.178 3461.97Z" stroke="black" stroke-width="9.77395"/>
<path d="M301.418 3585.26C291.378 3549.15 307.434 3514.98 334.796 3507.38C362.158 3499.77 393.544 3520.74 403.584 3556.85C413.624 3592.97 397.568 3627.13 370.207 3634.74C342.845 3642.35 311.458 3621.37 301.418 3585.26Z" stroke="black" stroke-width="9.77395"/>
<path d="M1792.07 3545.23C1782.03 3509.11 1798.08 3474.95 1825.45 3467.34C1852.81 3459.73 1884.19 3480.71 1894.23 3516.82C1904.27 3552.93 1888.22 3587.1 1860.86 3594.7C1833.5 3602.31 1802.11 3581.34 1792.07 3545.23Z" stroke="black" stroke-width="9.77395"/>
<path d="M723.587 1000.03C713.546 963.919 729.603 929.754 756.964 922.146C784.326 914.539 815.713 935.513 825.753 971.625C835.793 1007.74 819.737 1041.9 792.375 1049.51C765.013 1057.12 733.627 1036.14 723.587 1000.03Z" stroke="black" stroke-width="9.77395"/>
<path d="M525.579 2815.72C515.538 2779.61 531.595 2745.44 558.956 2737.83C586.318 2730.23 617.705 2751.2 627.745 2787.31C637.785 2823.42 621.729 2857.59 594.367 2865.2C567.005 2872.8 535.619 2851.83 525.579 2815.72Z" stroke="black" stroke-width="9.77395"/>
<path d="M2052.26 446.17C2042.22 410.058 2058.28 375.893 2085.64 368.286C2113 360.678 2144.39 381.653 2154.43 417.764C2164.47 453.876 2148.41 488.041 2121.05 495.648C2093.69 503.256 2062.3 482.281 2052.26 446.17Z" stroke="black" stroke-width="9.77395"/>
<path d="M192.878 2574.72L192.9 2574.76L192.922 2574.8C211.207 2606.77 227.453 2639.13 239.079 2674.82C242.018 2683.84 234.116 2692.96 224.254 2691.31C191.02 2685.75 161.915 2682.76 120.359 2680.62C117.697 2680.49 115.354 2679.62 113.432 2678.27L112.297 2677.48L110.912 2677.4C108.142 2677.24 105.321 2677.08 102.447 2676.93C92.6555 2676.41 86.9348 2665.92 91.6788 2657.69C114.288 2618.46 133.691 2591.37 165.207 2557.42C170.914 2551.27 180.91 2552.36 185.197 2559.63C187.297 2563.19 188.204 2565.1 189.057 2566.97C189.154 2567.18 189.251 2567.4 189.349 2567.61C190.17 2569.43 191.086 2571.45 192.878 2574.72Z" stroke="black" stroke-width="9.77395"/>
<mask id="path-21-inside-1_9_119" fill="white">
<ellipse cx="213.119" cy="2668.06" rx="5.12813" ry="5.12813" transform="rotate(126.069 213.119 2668.06)"/>
</mask>
<path d="M215.854 2664.3C217.928 2665.81 218.385 2668.72 216.874 2670.79L201.073 2659.28C196.228 2665.94 197.693 2675.26 204.345 2680.1L215.854 2664.3ZM216.874 2670.79C215.364 2672.87 212.458 2673.32 210.384 2671.81L221.893 2656.01C215.24 2651.17 205.919 2652.63 201.073 2659.28L216.874 2670.79ZM210.384 2671.81C208.31 2670.3 207.853 2667.4 209.364 2665.32L225.164 2676.83C230.01 2670.18 228.545 2660.86 221.893 2656.01L210.384 2671.81ZM209.364 2665.32C210.874 2663.25 213.78 2662.79 215.854 2664.3L204.345 2680.1C210.998 2684.95 220.319 2683.48 225.164 2676.83L209.364 2665.32Z" fill="black" mask="url(#path-21-inside-1_9_119)"/>
<mask id="path-23-inside-2_9_119" fill="white">
<ellipse cx="196.742" cy="2633.93" rx="5.12813" ry="5.12813" transform="rotate(126.069 196.742 2633.93)"/>
</mask>
<path d="M199.477 2630.17C201.551 2631.68 202.008 2634.59 200.497 2636.66L184.697 2625.15C179.851 2631.8 181.316 2641.13 187.968 2645.97L199.477 2630.17ZM200.497 2636.66C198.987 2638.73 196.081 2639.19 194.007 2637.68L205.516 2621.88C198.863 2617.03 189.542 2618.5 184.697 2625.15L200.497 2636.66ZM194.007 2637.68C191.933 2636.17 191.476 2633.26 192.987 2631.19L208.788 2642.7C213.633 2636.05 212.168 2626.73 205.516 2621.88L194.007 2637.68ZM192.987 2631.19C194.498 2629.12 197.403 2628.66 199.477 2630.17L187.968 2645.97C194.621 2650.82 203.942 2649.35 208.788 2642.7L192.987 2631.19Z" fill="black" mask="url(#path-23-inside-2_9_119)"/>
<mask id="path-25-inside-3_9_119" fill="white">
<ellipse cx="178.627" cy="2658.8" rx="5.12813" ry="5.12813" transform="rotate(126.069 178.627 2658.8)"/>
</mask>
<path d="M181.362 2655.04C183.436 2656.55 183.893 2659.46 182.382 2661.53L166.582 2650.02C161.736 2656.67 163.201 2666 169.854 2670.84L181.362 2655.04ZM182.382 2661.53C180.872 2663.61 177.966 2664.06 175.892 2662.55L187.401 2646.75C180.748 2641.9 171.427 2643.37 166.582 2650.02L182.382 2661.53ZM175.892 2662.55C173.818 2661.04 173.361 2658.13 174.872 2656.06L190.673 2667.57C195.518 2660.92 194.053 2651.6 187.401 2646.75L175.892 2662.55ZM174.872 2656.06C176.383 2653.99 179.288 2653.53 181.362 2655.04L169.854 2670.84C176.506 2675.69 185.827 2674.22 190.673 2667.57L174.872 2656.06Z" fill="black" mask="url(#path-25-inside-3_9_119)"/>
<mask id="path-27-inside-4_9_119" fill="white">
<ellipse cx="163.377" cy="2631.83" rx="5.12813" ry="5.12813" transform="rotate(126.069 163.377 2631.83)"/>
</mask>
<path d="M166.112 2628.07C168.186 2629.58 168.643 2632.49 167.132 2634.56L151.331 2623.05C146.486 2629.71 147.951 2639.03 154.603 2643.87L166.112 2628.07ZM167.132 2634.56C165.622 2636.64 162.716 2637.09 160.642 2635.58L172.151 2619.78C165.498 2614.94 156.177 2616.4 151.331 2623.05L167.132 2634.56ZM160.642 2635.58C158.568 2634.07 158.111 2631.17 159.622 2629.09L175.422 2640.6C180.268 2633.95 178.803 2624.63 172.151 2619.78L160.642 2635.58ZM159.622 2629.09C161.132 2627.02 164.038 2626.56 166.112 2628.07L154.603 2643.87C161.256 2648.72 170.577 2647.25 175.422 2640.6L159.622 2629.09Z" fill="black" mask="url(#path-27-inside-4_9_119)"/>
<mask id="path-29-inside-5_9_119" fill="white">
<ellipse cx="181.492" cy="2606.96" rx="5.12813" ry="5.12813" transform="rotate(126.069 181.492 2606.96)"/>
</mask>
<path d="M184.228 2603.2C186.302 2604.71 186.758 2607.62 185.248 2609.69L169.447 2598.18C164.601 2604.84 166.066 2614.16 172.719 2619L184.228 2603.2ZM185.248 2609.69C183.737 2611.77 180.831 2612.22 178.757 2610.71L190.266 2594.91C183.614 2590.07 174.292 2591.53 169.447 2598.18L185.248 2609.69ZM178.757 2610.71C176.683 2609.2 176.227 2606.3 177.737 2604.22L193.538 2615.73C198.383 2609.08 196.919 2599.76 190.266 2594.91L178.757 2610.71ZM177.737 2604.22C179.248 2602.15 182.154 2601.69 184.228 2603.2L172.719 2619C179.371 2623.85 188.692 2622.38 193.538 2615.73L177.737 2604.22Z" fill="black" mask="url(#path-29-inside-5_9_119)"/>
<mask id="path-31-inside-6_9_119" fill="white">
<ellipse cx="142.243" cy="2660.84" rx="5.12813" ry="5.12813" transform="rotate(126.069 142.243 2660.84)"/>
</mask>
<path d="M144.978 2657.09C147.052 2658.6 147.509 2661.5 145.998 2663.58L130.197 2652.07C125.352 2658.72 126.816 2668.04 133.469 2672.89L144.978 2657.09ZM145.998 2663.58C144.487 2665.65 141.581 2666.11 139.507 2664.6L151.016 2648.8C144.364 2643.95 135.043 2645.42 130.197 2652.07L145.998 2663.58ZM139.507 2664.6C137.433 2663.09 136.977 2660.18 138.487 2658.11L154.288 2669.62C159.134 2662.96 157.669 2653.64 151.016 2648.8L139.507 2664.6ZM138.487 2658.11C139.998 2656.03 142.904 2655.58 144.978 2657.09L133.469 2672.89C140.122 2677.73 149.443 2676.27 154.288 2669.62L138.487 2658.11Z" fill="black" mask="url(#path-31-inside-6_9_119)"/>
<path d="M1474.32 1487.56L1474.34 1487.6L1474.36 1487.64C1492.64 1519.61 1508.89 1551.97 1520.52 1587.66C1523.45 1596.68 1515.55 1605.79 1505.69 1604.14C1472.46 1598.59 1443.35 1595.59 1401.8 1593.46C1399.13 1593.32 1396.79 1592.45 1394.87 1591.11L1393.73 1590.31L1392.35 1590.23C1389.58 1590.07 1386.76 1589.92 1383.88 1589.76C1374.09 1589.24 1368.37 1578.76 1373.12 1570.53C1395.72 1531.29 1415.13 1504.2 1446.64 1470.26C1452.35 1464.11 1462.35 1465.2 1466.63 1472.46C1468.73 1476.02 1469.64 1477.93 1470.49 1479.81C1470.59 1480.02 1470.69 1480.23 1470.79 1480.45C1471.61 1482.26 1472.52 1484.29 1474.32 1487.56Z" stroke="black" stroke-width="9.77395"/>
<mask id="path-34-inside-7_9_119" fill="white">
<ellipse cx="1494.55" cy="1580.89" rx="5.12813" ry="5.12813" transform="rotate(126.069 1494.55 1580.89)"/>
</mask>
<path d="M1497.29 1577.14C1499.36 1578.65 1499.82 1581.55 1498.31 1583.63L1482.51 1572.12C1477.66 1578.77 1479.13 1588.09 1485.78 1592.94L1497.29 1577.14ZM1498.31 1583.63C1496.8 1585.7 1493.89 1586.16 1491.82 1584.65L1503.33 1568.85C1496.68 1564 1487.35 1565.47 1482.51 1572.12L1498.31 1583.63ZM1491.82 1584.65C1489.75 1583.14 1489.29 1580.23 1490.8 1578.16L1506.6 1589.67C1511.45 1583.01 1509.98 1573.69 1503.33 1568.85L1491.82 1584.65ZM1490.8 1578.16C1492.31 1576.08 1495.22 1575.63 1497.29 1577.14L1485.78 1592.94C1492.43 1597.78 1501.75 1596.32 1506.6 1589.67L1490.8 1578.16Z" fill="black" mask="url(#path-34-inside-7_9_119)"/>
<mask id="path-36-inside-8_9_119" fill="white">
<ellipse cx="1478.18" cy="1546.76" rx="5.12813" ry="5.12813" transform="rotate(126.069 1478.18 1546.76)"/>
</mask>
<path d="M1480.91 1543C1482.99 1544.51 1483.44 1547.42 1481.93 1549.49L1466.13 1537.99C1461.29 1544.64 1462.75 1553.96 1469.4 1558.8L1480.91 1543ZM1481.93 1549.49C1480.42 1551.57 1477.52 1552.03 1475.44 1550.51L1486.95 1534.71C1480.3 1529.87 1470.98 1531.33 1466.13 1537.99L1481.93 1549.49ZM1475.44 1550.51C1473.37 1549 1472.91 1546.1 1474.42 1544.02L1490.22 1555.53C1495.07 1548.88 1493.6 1539.56 1486.95 1534.71L1475.44 1550.51ZM1474.42 1544.02C1475.93 1541.95 1478.84 1541.49 1480.91 1543L1469.4 1558.8C1476.06 1563.65 1485.38 1562.19 1490.22 1555.53L1474.42 1544.02Z" fill="black" mask="url(#path-36-inside-8_9_119)"/>
<mask id="path-38-inside-9_9_119" fill="white">
<ellipse cx="1460.06" cy="1571.63" rx="5.12813" ry="5.12813" transform="rotate(126.069 1460.06 1571.63)"/>
</mask>
<path d="M1462.8 1567.87C1464.87 1569.39 1465.33 1572.29 1463.82 1574.37L1448.02 1562.86C1443.17 1569.51 1444.64 1578.83 1451.29 1583.68L1462.8 1567.87ZM1463.82 1574.37C1462.31 1576.44 1459.4 1576.9 1457.33 1575.39L1468.84 1559.58C1462.18 1554.74 1452.86 1556.2 1448.02 1562.86L1463.82 1574.37ZM1457.33 1575.39C1455.25 1573.87 1454.8 1570.97 1456.31 1568.89L1472.11 1580.4C1476.95 1573.75 1475.49 1564.43 1468.84 1559.58L1457.33 1575.39ZM1456.31 1568.89C1457.82 1566.82 1460.72 1566.36 1462.8 1567.87L1451.29 1583.68C1457.94 1588.52 1467.26 1587.06 1472.11 1580.4L1456.31 1568.89Z" fill="black" mask="url(#path-38-inside-9_9_119)"/>
<mask id="path-40-inside-10_9_119" fill="white">
<ellipse cx="1444.81" cy="1544.66" rx="5.12813" ry="5.12813" transform="rotate(126.069 1444.81 1544.66)"/>
</mask>
<path d="M1447.55 1540.91C1449.62 1542.42 1450.08 1545.32 1448.57 1547.4L1432.77 1535.89C1427.92 1542.54 1429.39 1551.86 1436.04 1556.71L1447.55 1540.91ZM1448.57 1547.4C1447.06 1549.47 1444.15 1549.93 1442.08 1548.42L1453.59 1532.62C1446.93 1527.77 1437.61 1529.24 1432.77 1535.89L1448.57 1547.4ZM1442.08 1548.42C1440 1546.91 1439.55 1544 1441.06 1541.93L1456.86 1553.44C1461.7 1546.78 1460.24 1537.46 1453.59 1532.62L1442.08 1548.42ZM1441.06 1541.93C1442.57 1539.85 1445.47 1539.4 1447.55 1540.91L1436.04 1556.71C1442.69 1561.55 1452.01 1560.09 1456.86 1553.44L1441.06 1541.93Z" fill="black" mask="url(#path-40-inside-10_9_119)"/>
<mask id="path-42-inside-11_9_119" fill="white">
<ellipse cx="1462.93" cy="1519.79" rx="5.12813" ry="5.12813" transform="rotate(126.069 1462.93 1519.79)"/>
</mask>
<path d="M1465.66 1516.04C1467.74 1517.55 1468.19 1520.45 1466.68 1522.53L1450.88 1511.02C1446.04 1517.67 1447.5 1526.99 1454.16 1531.84L1465.66 1516.04ZM1466.68 1522.53C1465.17 1524.6 1462.27 1525.06 1460.19 1523.55L1471.7 1507.75C1465.05 1502.9 1455.73 1504.36 1450.88 1511.02L1466.68 1522.53ZM1460.19 1523.55C1458.12 1522.04 1457.66 1519.13 1459.17 1517.06L1474.97 1528.56C1479.82 1521.91 1478.36 1512.59 1471.7 1507.75L1460.19 1523.55ZM1459.17 1517.06C1460.68 1514.98 1463.59 1514.52 1465.66 1516.04L1454.16 1531.84C1460.81 1536.68 1470.13 1535.22 1474.97 1528.56L1459.17 1517.06Z" fill="black" mask="url(#path-42-inside-11_9_119)"/>
<mask id="path-44-inside-12_9_119" fill="white">
<ellipse cx="1423.68" cy="1573.68" rx="5.12813" ry="5.12813" transform="rotate(126.069 1423.68 1573.68)"/>
</mask>
<path d="M1426.41 1569.92C1428.49 1571.43 1428.95 1574.34 1427.43 1576.41L1411.63 1564.9C1406.79 1571.56 1408.25 1580.88 1414.91 1585.72L1426.41 1569.92ZM1427.43 1576.41C1425.92 1578.49 1423.02 1578.94 1420.94 1577.43L1432.45 1561.63C1425.8 1556.79 1416.48 1558.25 1411.63 1564.9L1427.43 1576.41ZM1420.94 1577.43C1418.87 1575.92 1418.41 1573.02 1419.92 1570.94L1435.72 1582.45C1440.57 1575.8 1439.11 1566.48 1432.45 1561.63L1420.94 1577.43ZM1419.92 1570.94C1421.43 1568.87 1424.34 1568.41 1426.41 1569.92L1414.91 1585.72C1421.56 1590.57 1430.88 1589.1 1435.72 1582.45L1419.92 1570.94Z" fill="black" mask="url(#path-44-inside-12_9_119)"/>
<path d="M1189.84 3187.06L1189.82 3187.02L1189.8 3186.98C1171.51 3155.01 1155.27 3122.65 1143.64 3086.96C1140.7 3077.94 1148.6 3068.83 1158.47 3070.48C1191.7 3076.03 1220.8 3079.03 1262.36 3081.16C1265.02 3081.3 1267.37 3082.17 1269.29 3083.51L1270.42 3084.31L1271.81 3084.39C1274.58 3084.55 1277.4 3084.7 1280.27 3084.86C1290.06 3085.38 1295.78 3095.86 1291.04 3104.09C1268.43 3143.33 1249.03 3170.42 1217.51 3204.36C1211.8 3210.51 1201.81 3209.42 1197.52 3202.16C1195.42 3198.6 1194.51 3196.69 1193.66 3194.81C1193.57 3194.6 1193.47 3194.39 1193.37 3194.17C1192.55 3192.36 1191.63 3190.33 1189.84 3187.06Z" stroke="black" stroke-width="9.77395"/>
<mask id="path-47-inside-13_9_119" fill="white">
<ellipse cx="1169.6" cy="3093.73" rx="5.12813" ry="5.12813" transform="rotate(-53.9313 1169.6 3093.73)"/>
</mask>
<path d="M1166.87 3097.48C1164.79 3095.97 1164.33 3093.07 1165.85 3090.99L1181.65 3102.5C1186.49 3095.85 1185.03 3086.53 1178.37 3081.68L1166.87 3097.48ZM1165.85 3090.99C1167.36 3088.92 1170.26 3088.46 1172.34 3089.97L1160.83 3105.77C1167.48 3110.62 1176.8 3109.16 1181.65 3102.5L1165.85 3090.99ZM1172.34 3089.97C1174.41 3091.48 1174.87 3094.39 1173.36 3096.46L1157.55 3084.96C1152.71 3091.61 1154.17 3100.93 1160.83 3105.77L1172.34 3089.97ZM1173.36 3096.46C1171.85 3098.54 1168.94 3098.99 1166.87 3097.48L1178.37 3081.68C1171.72 3076.84 1162.4 3078.3 1157.55 3084.96L1173.36 3096.46Z" fill="black" mask="url(#path-47-inside-13_9_119)"/>
<mask id="path-49-inside-14_9_119" fill="white">
<ellipse cx="1185.98" cy="3127.86" rx="5.12813" ry="5.12813" transform="rotate(-53.9313 1185.98 3127.86)"/>
</mask>
<path d="M1183.24 3131.62C1181.17 3130.11 1180.71 3127.2 1182.22 3125.13L1198.02 3136.63C1202.87 3129.98 1201.4 3120.66 1194.75 3115.82L1183.24 3131.62ZM1182.22 3125.13C1183.73 3123.05 1186.64 3122.6 1188.71 3124.11L1177.2 3139.91C1183.86 3144.75 1193.18 3143.29 1198.02 3136.63L1182.22 3125.13ZM1188.71 3124.11C1190.79 3125.62 1191.24 3128.52 1189.73 3130.6L1173.93 3119.09C1169.09 3125.74 1170.55 3135.06 1177.2 3139.91L1188.71 3124.11ZM1189.73 3130.6C1188.22 3132.67 1185.32 3133.13 1183.24 3131.62L1194.75 3115.82C1188.1 3110.97 1178.78 3112.43 1173.93 3119.09L1189.73 3130.6Z" fill="black" mask="url(#path-49-inside-14_9_119)"/>
<mask id="path-51-inside-15_9_119" fill="white">
<ellipse cx="1204.09" cy="3102.99" rx="5.12813" ry="5.12813" transform="rotate(-53.9313 1204.09 3102.99)"/>
</mask>
<path d="M1201.36 3106.75C1199.28 3105.24 1198.83 3102.33 1200.34 3100.26L1216.14 3111.76C1220.98 3105.11 1219.52 3095.79 1212.87 3090.95L1201.36 3106.75ZM1200.34 3100.26C1201.85 3098.18 1204.75 3097.72 1206.83 3099.24L1195.32 3115.04C1201.97 3119.88 1211.29 3118.42 1216.14 3111.76L1200.34 3100.26ZM1206.83 3099.24C1208.9 3100.75 1209.36 3103.65 1207.85 3105.73L1192.05 3094.22C1187.2 3100.87 1188.67 3110.19 1195.32 3115.04L1206.83 3099.24ZM1207.85 3105.73C1206.34 3107.8 1203.43 3108.26 1201.36 3106.75L1212.87 3090.95C1206.21 3086.1 1196.89 3087.56 1192.05 3094.22L1207.85 3105.73Z" fill="black" mask="url(#path-51-inside-15_9_119)"/>
<mask id="path-53-inside-16_9_119" fill="white">
<ellipse cx="1219.34" cy="3129.96" rx="5.12813" ry="5.12813" transform="rotate(-53.9313 1219.34 3129.96)"/>
</mask>
<path d="M1216.61 3133.71C1214.53 3132.2 1214.08 3129.3 1215.59 3127.22L1231.39 3138.73C1236.23 3132.08 1234.77 3122.76 1228.12 3117.91L1216.61 3133.71ZM1215.59 3127.22C1217.1 3125.15 1220 3124.69 1222.08 3126.2L1210.57 3142C1217.22 3146.85 1226.54 3145.39 1231.39 3138.73L1215.59 3127.22ZM1222.08 3126.2C1224.15 3127.71 1224.61 3130.62 1223.1 3132.69L1207.3 3121.19C1202.45 3127.84 1203.92 3137.16 1210.57 3142L1222.08 3126.2ZM1223.1 3132.69C1221.59 3134.77 1218.68 3135.23 1216.61 3133.71L1228.12 3117.91C1221.46 3113.07 1212.14 3114.53 1207.3 3121.19L1223.1 3132.69Z" fill="black" mask="url(#path-53-inside-16_9_119)"/>
<mask id="path-55-inside-17_9_119" fill="white">
<ellipse cx="1201.23" cy="3154.83" rx="5.12813" ry="5.12813" transform="rotate(-53.9313 1201.23 3154.83)"/>
</mask>
<path d="M1198.49 3158.59C1196.42 3157.07 1195.96 3154.17 1197.47 3152.09L1213.27 3163.6C1218.12 3156.95 1216.65 3147.63 1210 3142.78L1198.49 3158.59ZM1197.47 3152.09C1198.98 3150.02 1201.89 3149.56 1203.96 3151.07L1192.45 3166.88C1199.11 3171.72 1208.43 3170.26 1213.27 3163.6L1197.47 3152.09ZM1203.96 3151.07C1206.04 3152.59 1206.49 3155.49 1204.98 3157.57L1189.18 3146.06C1184.34 3152.71 1185.8 3162.03 1192.45 3166.88L1203.96 3151.07ZM1204.98 3157.57C1203.47 3159.64 1200.57 3160.1 1198.49 3158.59L1210 3142.78C1203.35 3137.94 1194.03 3139.4 1189.18 3146.06L1204.98 3157.57Z" fill="black" mask="url(#path-55-inside-17_9_119)"/>
<mask id="path-57-inside-18_9_119" fill="white">
<ellipse cx="1240.48" cy="3100.94" rx="5.12813" ry="5.12813" transform="rotate(-53.9313 1240.48 3100.94)"/>
</mask>
<path d="M1237.74 3104.7C1235.67 3103.19 1235.21 3100.28 1236.72 3098.21L1252.52 3109.72C1257.37 3103.06 1255.9 3093.74 1249.25 3088.9L1237.74 3104.7ZM1236.72 3098.21C1238.23 3096.13 1241.14 3095.68 1243.21 3097.19L1231.7 3112.99C1238.36 3117.83 1247.68 3116.37 1252.52 3109.72L1236.72 3098.21ZM1243.21 3097.19C1245.29 3098.7 1245.74 3101.6 1244.23 3103.68L1228.43 3092.17C1223.59 3098.82 1225.05 3108.14 1231.7 3112.99L1243.21 3097.19ZM1244.23 3103.68C1242.72 3105.75 1239.82 3106.21 1237.74 3104.7L1249.25 3088.9C1242.6 3084.05 1233.28 3085.52 1228.43 3092.17L1244.23 3103.68Z" fill="black" mask="url(#path-57-inside-18_9_119)"/>
<path d="M592.083 3310.35L592.061 3310.31L592.039 3310.27C573.754 3278.3 557.507 3245.94 545.882 3210.25C542.943 3201.23 550.845 3192.12 560.707 3193.76C593.941 3199.32 623.046 3202.31 664.602 3204.45C667.264 3204.58 669.607 3205.45 671.528 3206.8L672.664 3207.59L674.049 3207.67C676.819 3207.83 679.64 3207.99 682.514 3208.14C692.305 3208.67 698.026 3219.15 693.282 3227.38C670.673 3266.61 651.27 3293.7 619.754 3327.65C614.047 3333.8 604.051 3332.71 599.764 3325.45C597.664 3321.89 596.757 3319.98 595.904 3318.1C595.807 3317.89 595.71 3317.68 595.612 3317.46C594.791 3315.64 593.875 3313.62 592.083 3310.35Z" stroke="black" stroke-width="9.77395"/>
<mask id="path-60-inside-19_9_119" fill="white">
<ellipse cx="571.843" cy="3217.02" rx="5.12813" ry="5.12813" transform="rotate(-53.9313 571.843 3217.02)"/>
</mask>
<path d="M569.108 3220.77C567.034 3219.26 566.577 3216.35 568.088 3214.28L583.889 3225.79C588.734 3219.14 587.27 3209.82 580.617 3204.97L569.108 3220.77ZM568.088 3214.28C569.599 3212.21 572.505 3211.75 574.579 3213.26L563.07 3229.06C569.722 3233.91 579.043 3232.44 583.889 3225.79L568.088 3214.28ZM574.579 3213.26C576.653 3214.77 577.109 3217.68 575.599 3219.75L559.798 3208.24C554.952 3214.89 556.417 3224.22 563.07 3229.06L574.579 3213.26ZM575.599 3219.75C574.088 3221.82 571.182 3222.28 569.108 3220.77L580.617 3204.97C573.964 3200.12 564.643 3201.59 559.798 3208.24L575.599 3219.75Z" fill="black" mask="url(#path-60-inside-19_9_119)"/>
<mask id="path-62-inside-20_9_119" fill="white">
<ellipse cx="588.22" cy="3251.15" rx="5.12813" ry="5.12813" transform="rotate(-53.9313 588.22 3251.15)"/>
</mask>
<path d="M585.485 3254.9C583.411 3253.39 582.954 3250.49 584.464 3248.41L600.265 3259.92C605.111 3253.27 603.646 3243.95 596.993 3239.1L585.485 3254.9ZM584.464 3248.41C585.975 3246.34 588.881 3245.88 590.955 3247.39L579.446 3263.19C586.099 3268.04 595.42 3266.58 600.265 3259.92L584.464 3248.41ZM590.955 3247.39C593.029 3248.9 593.486 3251.81 591.975 3253.88L576.174 3242.38C571.329 3249.03 572.794 3258.35 579.446 3263.19L590.955 3247.39ZM591.975 3253.88C590.464 3255.96 587.558 3256.41 585.485 3254.9L596.993 3239.1C590.341 3234.26 581.02 3235.72 576.174 3242.38L591.975 3253.88Z" fill="black" mask="url(#path-62-inside-20_9_119)"/>
<mask id="path-64-inside-21_9_119" fill="white">
<ellipse cx="606.335" cy="3226.28" rx="5.12813" ry="5.12813" transform="rotate(-53.9313 606.335 3226.28)"/>
</mask>
<path d="M603.599 3230.03C601.526 3228.52 601.069 3225.62 602.579 3223.54L618.38 3235.05C623.226 3228.4 621.761 3219.08 615.108 3214.23L603.599 3230.03ZM602.579 3223.54C604.09 3221.47 606.996 3221.01 609.07 3222.52L597.561 3238.32C604.214 3243.17 613.535 3241.7 618.38 3235.05L602.579 3223.54ZM609.07 3222.52C611.144 3224.03 611.601 3226.94 610.09 3229.01L594.289 3217.5C589.444 3224.16 590.909 3233.48 597.561 3238.32L609.07 3222.52ZM610.09 3229.01C608.579 3231.09 605.673 3231.54 603.599 3230.03L615.108 3214.23C608.456 3209.39 599.135 3210.85 594.289 3217.5L610.09 3229.01Z" fill="black" mask="url(#path-64-inside-21_9_119)"/>
<mask id="path-66-inside-22_9_119" fill="white">
<ellipse cx="621.585" cy="3253.25" rx="5.12813" ry="5.12813" transform="rotate(-53.9313 621.585 3253.25)"/>
</mask>
<path d="M618.85 3257C616.776 3255.49 616.319 3252.59 617.83 3250.51L633.631 3262.02C638.476 3255.37 637.011 3246.05 630.359 3241.2L618.85 3257ZM617.83 3250.51C619.34 3248.44 622.246 3247.98 624.32 3249.49L612.811 3265.29C619.464 3270.14 628.785 3268.67 633.631 3262.02L617.83 3250.51ZM624.32 3249.49C626.394 3251 626.851 3253.91 625.34 3255.98L609.539 3244.47C604.694 3251.13 606.159 3260.45 612.811 3265.29L624.32 3249.49ZM625.34 3255.98C623.83 3258.06 620.924 3258.51 618.85 3257L630.359 3241.2C623.706 3236.36 614.385 3237.82 609.539 3244.47L625.34 3255.98Z" fill="black" mask="url(#path-66-inside-22_9_119)"/>
<mask id="path-68-inside-23_9_119" fill="white">
<ellipse cx="603.469" cy="3278.12" rx="5.12813" ry="5.12813" transform="rotate(-53.9313 603.469 3278.12)"/>
</mask>
<path d="M600.734 3281.87C598.66 3280.36 598.204 3277.46 599.714 3275.38L615.515 3286.89C620.361 3280.24 618.896 3270.92 612.243 3266.07L600.734 3281.87ZM599.714 3275.38C601.225 3273.31 604.131 3272.85 606.205 3274.36L594.696 3290.16C601.348 3295.01 610.669 3293.54 615.515 3286.89L599.714 3275.38ZM606.205 3274.36C608.279 3275.87 608.735 3278.78 607.225 3280.85L591.424 3269.34C586.578 3276 588.043 3285.32 594.696 3290.16L606.205 3274.36ZM607.225 3280.85C605.714 3282.93 602.808 3283.38 600.734 3281.87L612.243 3266.07C605.591 3261.23 596.27 3262.69 591.424 3269.34L607.225 3280.85Z" fill="black" mask="url(#path-68-inside-23_9_119)"/>
<mask id="path-70-inside-24_9_119" fill="white">
<ellipse cx="642.719" cy="3224.23" rx="5.12813" ry="5.12813" transform="rotate(-53.9313 642.719 3224.23)"/>
</mask>
<path d="M639.984 3227.99C637.91 3226.47 637.453 3223.57 638.964 3221.5L654.765 3233C659.61 3226.35 658.145 3217.03 651.493 3212.18L639.984 3227.99ZM638.964 3221.5C640.475 3219.42 643.381 3218.96 645.455 3220.48L633.946 3236.28C640.598 3241.12 649.919 3239.66 654.765 3233L638.964 3221.5ZM645.455 3220.48C647.528 3221.99 647.985 3224.89 646.475 3226.97L630.674 3215.46C625.828 3222.11 627.293 3231.43 633.946 3236.28L645.455 3220.48ZM646.475 3226.97C644.964 3229.04 642.058 3229.5 639.984 3227.99L651.493 3212.18C644.84 3207.34 635.519 3208.8 630.674 3215.46L646.475 3226.97Z" fill="black" mask="url(#path-70-inside-24_9_119)"/>
<path d="M642.839 1448.39L642.817 1448.35L642.795 1448.32C624.51 1416.34 608.263 1383.99 596.638 1348.3C593.699 1339.27 601.601 1330.16 611.463 1331.81C644.697 1337.36 673.802 1340.36 715.358 1342.49C718.02 1342.63 720.363 1343.5 722.284 1344.84L723.42 1345.64L724.804 1345.72C727.575 1345.88 730.395 1346.04 733.27 1346.19C743.061 1346.71 748.782 1357.19 744.038 1365.42C721.429 1404.66 702.026 1431.75 670.51 1465.69C664.802 1471.84 654.806 1470.75 650.52 1463.49C648.42 1459.93 647.512 1458.02 646.66 1456.15C646.563 1455.93 646.466 1455.72 646.368 1455.5C645.546 1453.69 644.631 1451.66 642.839 1448.39Z" stroke="black" stroke-width="9.77395"/>
<mask id="path-73-inside-25_9_119" fill="white">
<ellipse cx="622.6" cy="1179.13" rx="5.12813" ry="5.12813" transform="rotate(-53.9313 622.6 1179.13)"/>
</mask>
<path d="M619.864 1182.88C617.79 1181.37 617.334 1178.47 618.844 1176.39L634.645 1187.9C639.491 1181.25 638.026 1171.93 631.373 1167.08L619.864 1182.88ZM618.844 1176.39C620.355 1174.32 623.261 1173.86 625.335 1175.37L613.826 1191.17C620.479 1196.02 629.8 1194.55 634.645 1187.9L618.844 1176.39ZM625.335 1175.37C627.409 1176.88 627.866 1179.79 626.355 1181.86L610.554 1170.35C605.709 1177.01 607.173 1186.33 613.826 1191.17L625.335 1175.37ZM626.355 1181.86C624.844 1183.94 621.938 1184.39 619.864 1182.88L631.373 1167.08C624.721 1162.24 615.4 1163.7 610.554 1170.35L626.355 1181.86Z" fill="black" mask="url(#path-73-inside-25_9_119)"/>
<mask id="path-75-inside-26_9_119" fill="white">
<ellipse cx="638.976" cy="1213.26" rx="5.12813" ry="5.12813" transform="rotate(-53.9313 638.976 1213.26)"/>
</mask>
<path d="M636.241 1217.02C634.167 1215.5 633.71 1212.6 635.221 1210.53L651.022 1222.03C655.867 1215.38 654.403 1206.06 647.75 1201.21L636.241 1217.02ZM635.221 1210.53C636.732 1208.45 639.638 1207.99 641.712 1209.51L630.203 1225.31C636.855 1230.15 646.176 1228.69 651.022 1222.03L635.221 1210.53ZM641.712 1209.51C643.786 1211.02 644.242 1213.92 642.732 1216L626.931 1204.49C622.085 1211.14 623.55 1220.46 630.203 1225.31L641.712 1209.51ZM642.732 1216C641.221 1218.07 638.315 1218.53 636.241 1217.02L647.75 1201.21C641.097 1196.37 631.776 1197.83 626.931 1204.49L642.732 1216Z" fill="black" mask="url(#path-75-inside-26_9_119)"/>
<mask id="path-77-inside-27_9_119" fill="white">
<ellipse cx="657.091" cy="1188.39" rx="5.12813" ry="5.12813" transform="rotate(-53.9313 657.091 1188.39)"/>
</mask>
<path d="M654.356 1192.14C652.282 1190.63 651.825 1187.73 653.336 1185.65L669.137 1197.16C673.982 1190.51 672.518 1181.19 665.865 1176.34L654.356 1192.14ZM653.336 1185.65C654.847 1183.58 657.753 1183.12 659.827 1184.63L648.318 1200.43C654.97 1205.28 664.291 1203.82 669.137 1197.16L653.336 1185.65ZM659.827 1184.63C661.901 1186.14 662.357 1189.05 660.847 1191.12L645.046 1179.62C640.2 1186.27 641.665 1195.59 648.318 1200.43L659.827 1184.63ZM660.847 1191.12C659.336 1193.2 656.43 1193.66 654.356 1192.14L665.865 1176.34C659.212 1171.5 649.891 1172.96 645.046 1179.62L660.847 1191.12Z" fill="black" mask="url(#path-77-inside-27_9_119)"/>
<mask id="path-79-inside-28_9_119" fill="white">
<ellipse cx="672.342" cy="1215.36" rx="5.12813" ry="5.12813" transform="rotate(-53.9313 672.342 1215.36)"/>
</mask>
<path d="M669.607 1219.11C667.533 1217.6 667.076 1214.7 668.587 1212.62L684.387 1224.13C689.233 1217.48 687.768 1208.16 681.115 1203.31L669.607 1219.11ZM668.587 1212.62C670.097 1210.55 673.003 1210.09 675.077 1211.6L663.568 1227.4C670.221 1232.25 679.542 1230.78 684.387 1224.13L668.587 1212.62ZM675.077 1211.6C677.151 1213.11 677.608 1216.02 676.097 1218.09L660.296 1206.58C655.451 1213.24 656.916 1222.56 663.568 1227.4L675.077 1211.6ZM676.097 1218.09C674.586 1220.17 671.681 1220.62 669.607 1219.11L681.115 1203.31C674.463 1198.47 665.142 1199.93 660.296 1206.58L676.097 1218.09Z" fill="black" mask="url(#path-79-inside-28_9_119)"/>
<mask id="path-81-inside-29_9_119" fill="white">
<ellipse cx="654.226" cy="1240.23" rx="5.12813" ry="5.12813" transform="rotate(-53.9313 654.226 1240.23)"/>
</mask>
<path d="M651.491 1243.98C649.417 1242.47 648.96 1239.57 650.471 1237.49L666.272 1249C671.117 1242.35 669.653 1233.03 663 1228.18L651.491 1243.98ZM650.471 1237.49C651.982 1235.42 654.888 1234.96 656.962 1236.47L645.453 1252.27C652.105 1257.12 661.426 1255.66 666.272 1249L650.471 1237.49ZM656.962 1236.47C659.036 1237.98 659.492 1240.89 657.982 1242.96L642.181 1231.46C637.335 1238.11 638.8 1247.43 645.453 1252.27L656.962 1236.47ZM657.982 1242.96C656.471 1245.04 653.565 1245.49 651.491 1243.98L663 1228.18C656.347 1223.34 647.026 1224.8 642.181 1231.46L657.982 1242.96Z" fill="black" mask="url(#path-81-inside-29_9_119)"/>
<mask id="path-83-inside-30_9_119" fill="white">
<ellipse cx="693.476" cy="1186.34" rx="5.12813" ry="5.12813" transform="rotate(-53.9313 693.476 1186.34)"/>
</mask>
<path d="M690.741 1190.1C688.667 1188.59 688.21 1185.68 689.721 1183.61L705.521 1195.12C710.367 1188.46 708.902 1179.14 702.25 1174.3L690.741 1190.1ZM689.721 1183.61C691.231 1181.53 694.137 1181.08 696.211 1182.59L684.702 1198.39C691.355 1203.23 700.676 1201.77 705.521 1195.12L689.721 1183.61ZM696.211 1182.59C698.285 1184.1 698.742 1187 697.231 1189.08L681.43 1177.57C676.585 1184.22 678.05 1193.54 684.702 1198.39L696.211 1182.59ZM697.231 1189.08C695.721 1191.15 692.815 1191.61 690.741 1190.1L702.25 1174.3C695.597 1169.45 686.276 1170.92 681.43 1177.57L697.231 1189.08Z" fill="black" mask="url(#path-83-inside-30_9_119)"/>
<path d="M816.245 2540.8L816.224 2540.76L816.202 2540.73C797.917 2508.75 781.67 2476.4 770.045 2440.71C767.106 2431.68 775.007 2422.57 784.87 2424.22C818.104 2429.77 847.209 2432.77 888.765 2434.9C891.426 2435.04 893.769 2435.91 895.691 2437.25L896.827 2438.05L898.211 2438.13C900.982 2438.29 903.802 2438.45 906.677 2438.6C916.468 2439.12 922.189 2449.6 917.445 2457.83C894.836 2497.07 875.433 2524.16 843.917 2558.1C838.209 2564.25 828.213 2563.16 823.927 2555.9C821.826 2552.34 820.919 2550.43 820.066 2548.56C819.97 2548.34 819.873 2548.13 819.775 2547.91C818.953 2546.1 818.038 2544.07 816.245 2540.8Z" stroke="black" stroke-width="9.77395"/>
<mask id="path-86-inside-31_9_119" fill="white">
<ellipse cx="796.005" cy="2447.47" rx="5.12813" ry="5.12813" transform="rotate(-53.9313 796.005 2447.47)"/>
</mask>
<path d="M793.27 2451.23C791.196 2449.72 790.739 2446.81 792.25 2444.74L808.051 2456.24C812.896 2449.59 811.431 2440.27 804.779 2435.43L793.27 2451.23ZM792.25 2444.74C793.761 2442.66 796.666 2442.21 798.74 2443.72L787.231 2459.52C793.884 2464.36 803.205 2462.9 808.051 2456.24L792.25 2444.74ZM798.74 2443.72C800.814 2445.23 801.271 2448.13 799.76 2450.21L783.96 2438.7C779.114 2445.35 780.579 2454.67 787.231 2459.52L798.74 2443.72ZM799.76 2450.21C798.25 2452.28 795.344 2452.74 793.27 2451.23L804.779 2435.43C798.126 2430.58 788.805 2432.05 783.96 2438.7L799.76 2450.21Z" fill="black" mask="url(#path-86-inside-31_9_119)"/>
<mask id="path-88-inside-32_9_119" fill="white">
<ellipse cx="812.382" cy="2481.6" rx="5.12813" ry="5.12813" transform="rotate(-53.9313 812.382 2481.6)"/>
</mask>
<path d="M809.646 2485.36C807.572 2483.85 807.116 2480.94 808.626 2478.87L824.427 2490.38C829.273 2483.72 827.808 2474.4 821.155 2469.56L809.646 2485.36ZM808.626 2478.87C810.137 2476.79 813.043 2476.34 815.117 2477.85L803.608 2493.65C810.261 2498.49 819.582 2497.03 824.427 2490.38L808.626 2478.87ZM815.117 2477.85C817.191 2479.36 817.648 2482.27 816.137 2484.34L800.336 2472.83C795.491 2479.48 796.955 2488.8 803.608 2493.65L815.117 2477.85ZM816.137 2484.34C814.626 2486.41 811.72 2486.87 809.646 2485.36L821.155 2469.56C814.503 2464.71 805.182 2466.18 800.336 2472.83L816.137 2484.34Z" fill="black" mask="url(#path-88-inside-32_9_119)"/>
<mask id="path-90-inside-33_9_119" fill="white">
<ellipse cx="830.496" cy="2456.73" rx="5.12813" ry="5.12813" transform="rotate(-53.9313 830.496 2456.73)"/>
</mask>
<path d="M827.761 2460.49C825.687 2458.98 825.23 2456.07 826.741 2454L842.542 2465.51C847.387 2458.85 845.923 2449.53 839.27 2444.69L827.761 2460.49ZM826.741 2454C828.252 2451.92 831.158 2451.47 833.232 2452.98L821.723 2468.78C828.375 2473.62 837.696 2472.16 842.542 2465.51L826.741 2454ZM833.232 2452.98C835.306 2454.49 835.762 2457.39 834.252 2459.47L818.451 2447.96C813.605 2454.61 815.07 2463.93 821.723 2468.78L833.232 2452.98ZM834.252 2459.47C832.741 2461.54 829.835 2462 827.761 2460.49L839.27 2444.69C832.617 2439.84 823.296 2441.31 818.451 2447.96L834.252 2459.47Z" fill="black" mask="url(#path-90-inside-33_9_119)"/>
<mask id="path-92-inside-34_9_119" fill="white">
<ellipse cx="845.747" cy="2483.7" rx="5.12813" ry="5.12813" transform="rotate(-53.9313 845.747 2483.7)"/>
</mask>
<path d="M843.012 2487.46C840.938 2485.95 840.481 2483.04 841.992 2480.97L857.792 2492.48C862.638 2485.82 861.173 2476.5 854.521 2471.66L843.012 2487.46ZM841.992 2480.97C843.502 2478.89 846.408 2478.44 848.482 2479.95L836.973 2495.75C843.626 2500.59 852.947 2499.13 857.792 2492.48L841.992 2480.97ZM848.482 2479.95C850.556 2481.46 851.013 2484.36 849.502 2486.44L833.701 2474.93C828.856 2481.58 830.321 2490.9 836.973 2495.75L848.482 2479.95ZM849.502 2486.44C847.991 2488.51 845.086 2488.97 843.012 2487.46L854.521 2471.66C847.868 2466.81 838.547 2468.28 833.701 2474.93L849.502 2486.44Z" fill="black" mask="url(#path-92-inside-34_9_119)"/>
<mask id="path-94-inside-35_9_119" fill="white">
<ellipse cx="827.632" cy="2508.57" rx="5.12813" ry="5.12813" transform="rotate(-53.9313 827.632 2508.57)"/>
</mask>
<path d="M824.896 2512.33C822.822 2510.82 822.366 2507.91 823.876 2505.84L839.677 2517.35C844.523 2510.69 843.058 2501.37 836.405 2496.53L824.896 2512.33ZM823.876 2505.84C825.387 2503.76 828.293 2503.31 830.367 2504.82L818.858 2520.62C825.511 2525.46 834.832 2524 839.677 2517.35L823.876 2505.84ZM830.367 2504.82C832.441 2506.33 832.898 2509.23 831.387 2511.31L815.586 2499.8C810.741 2506.45 812.205 2515.77 818.858 2520.62L830.367 2504.82ZM831.387 2511.31C829.876 2513.38 826.97 2513.84 824.896 2512.33L836.405 2496.53C829.753 2491.68 820.432 2493.15 815.586 2499.8L831.387 2511.31Z" fill="black" mask="url(#path-94-inside-35_9_119)"/>
<mask id="path-96-inside-36_9_119" fill="white">
<ellipse cx="866.881" cy="2454.69" rx="5.12813" ry="5.12813" transform="rotate(-53.9313 866.881 2454.69)"/>
</mask>
<path d="M864.146 2458.44C862.072 2456.93 861.615 2454.02 863.126 2451.95L878.927 2463.46C883.772 2456.81 882.307 2447.49 875.655 2442.64L864.146 2458.44ZM863.126 2451.95C864.636 2449.88 867.542 2449.42 869.616 2450.93L858.107 2466.73C864.76 2471.58 874.081 2470.11 878.927 2463.46L863.126 2451.95ZM869.616 2450.93C871.69 2452.44 872.147 2455.35 870.636 2457.42L854.836 2445.91C849.99 2452.56 851.455 2461.89 858.107 2466.73L869.616 2450.93ZM870.636 2457.42C869.126 2459.5 866.22 2459.95 864.146 2458.44L875.655 2442.64C869.002 2437.79 859.681 2439.26 854.836 2445.91L870.636 2457.42Z" fill="black" mask="url(#path-96-inside-36_9_119)"/>
<path d="M1677.35 999.124L1677.33 999.085L1677.3 999.046C1659.02 967.073 1642.77 934.717 1631.15 899.026C1628.21 890.004 1636.11 880.89 1645.97 882.538C1679.21 888.092 1708.31 891.089 1749.87 893.222C1752.53 893.359 1754.87 894.228 1756.79 895.573L1757.93 896.368L1759.31 896.449C1762.08 896.609 1764.9 896.766 1767.78 896.919C1777.57 897.441 1783.29 907.923 1778.55 916.155C1755.94 955.389 1736.54 982.479 1705.02 1016.42C1699.31 1022.57 1689.32 1021.49 1685.03 1014.22C1682.93 1010.66 1682.02 1008.75 1681.17 1006.88C1681.07 1006.66 1680.98 1006.45 1680.88 1006.23C1680.06 1004.42 1679.14 1002.4 1677.35 999.124Z" stroke="black" stroke-width="9.77395"/>
<mask id="path-99-inside-37_9_119" fill="white">
<ellipse cx="1657.11" cy="905.791" rx="5.12813" ry="5.12813" transform="rotate(-53.9313 1657.11 905.791)"/>
</mask>
<path d="M1654.37 909.546C1652.3 908.036 1651.84 905.13 1653.35 903.056L1669.15 914.565C1674 907.912 1672.53 898.591 1665.88 893.746L1654.37 909.546ZM1653.35 903.056C1654.86 900.982 1657.77 900.525 1659.84 902.036L1648.33 917.837C1654.99 922.682 1664.31 921.217 1669.15 914.565L1653.35 903.056ZM1659.84 902.036C1661.92 903.547 1662.37 906.452 1660.86 908.526L1645.06 897.018C1640.22 903.67 1641.68 912.991 1648.33 917.837L1659.84 902.036ZM1660.86 908.526C1659.35 910.6 1656.45 911.057 1654.37 909.546L1665.88 893.746C1659.23 888.9 1649.91 890.365 1645.06 897.018L1660.86 908.526Z" fill="black" mask="url(#path-99-inside-37_9_119)"/>
<mask id="path-101-inside-38_9_119" fill="white">
<ellipse cx="1673.48" cy="939.924" rx="5.12813" ry="5.12813" transform="rotate(-53.9313 1673.48 939.924)"/>
</mask>
<path d="M1670.75 943.679C1668.67 942.169 1668.22 939.263 1669.73 937.189L1685.53 948.698C1690.38 942.045 1688.91 932.724 1682.26 927.878L1670.75 943.679ZM1669.73 937.189C1671.24 935.115 1674.15 934.658 1676.22 936.169L1664.71 951.969C1671.36 956.815 1680.68 955.35 1685.53 948.698L1669.73 937.189ZM1676.22 936.169C1678.29 937.679 1678.75 940.585 1677.24 942.659L1661.44 931.15C1656.59 937.803 1658.06 947.124 1664.71 951.969L1676.22 936.169ZM1677.24 942.659C1675.73 944.733 1672.82 945.19 1670.75 943.679L1682.26 927.878C1675.61 923.033 1666.28 924.498 1661.44 931.15L1677.24 942.659Z" fill="black" mask="url(#path-101-inside-38_9_119)"/>
<mask id="path-103-inside-39_9_119" fill="white">
<ellipse cx="1691.6" cy="915.053" rx="5.12813" ry="5.12813" transform="rotate(-53.9313 1691.6 915.053)"/>
</mask>
<path d="M1688.86 918.809C1686.79 917.298 1686.33 914.392 1687.84 912.318L1703.64 923.827C1708.49 917.174 1707.03 907.853 1700.37 903.008L1688.86 918.809ZM1687.84 912.318C1689.35 910.244 1692.26 909.787 1694.33 911.298L1682.83 927.099C1689.48 931.944 1698.8 930.48 1703.64 923.827L1687.84 912.318ZM1694.33 911.298C1696.41 912.809 1696.87 915.715 1695.35 917.789L1679.55 906.28C1674.71 912.932 1676.17 922.253 1682.83 927.099L1694.33 911.298ZM1695.35 917.789C1693.84 919.863 1690.94 920.319 1688.86 918.809L1700.37 903.008C1693.72 898.162 1684.4 899.627 1679.55 906.28L1695.35 917.789Z" fill="black" mask="url(#path-103-inside-39_9_119)"/>
<mask id="path-105-inside-40_9_119" fill="white">
<ellipse cx="1706.85" cy="942.022" rx="5.12813" ry="5.12813" transform="rotate(-53.9313 1706.85 942.022)"/>
</mask>
<path d="M1704.11 945.777C1702.04 944.266 1701.58 941.36 1703.09 939.286L1718.9 950.795C1723.74 944.143 1722.28 934.822 1715.62 929.976L1704.11 945.777ZM1703.09 939.286C1704.61 937.212 1707.51 936.756 1709.59 938.266L1698.08 954.067C1704.73 958.913 1714.05 957.448 1718.9 950.795L1703.09 939.286ZM1709.59 938.266C1711.66 939.777 1712.12 942.683 1710.61 944.757L1694.8 933.248C1689.96 939.901 1691.42 949.222 1698.08 954.067L1709.59 938.266ZM1710.61 944.757C1709.09 946.831 1706.19 947.288 1704.11 945.777L1715.62 929.976C1708.97 925.131 1699.65 926.595 1694.8 933.248L1710.61 944.757Z" fill="black" mask="url(#path-105-inside-40_9_119)"/>
<mask id="path-107-inside-41_9_119" fill="white">
<ellipse cx="1688.73" cy="966.892" rx="5.12813" ry="5.12813" transform="rotate(-53.9313 1688.73 966.892)"/>
</mask>
<path d="M1686 970.648C1683.92 969.137 1683.47 966.231 1684.98 964.157L1700.78 975.666C1705.63 969.014 1704.16 959.692 1697.51 954.847L1686 970.648ZM1684.98 964.157C1686.49 962.083 1689.4 961.626 1691.47 963.137L1679.96 978.938C1686.61 983.783 1695.93 982.319 1700.78 975.666L1684.98 964.157ZM1691.47 963.137C1693.54 964.648 1694 967.554 1692.49 969.628L1676.69 958.119C1671.84 964.771 1673.31 974.092 1679.96 978.938L1691.47 963.137ZM1692.49 969.628C1690.98 971.702 1688.07 972.158 1686 970.648L1697.51 954.847C1690.86 950.001 1681.53 951.466 1676.69 958.119L1692.49 969.628Z" fill="black" mask="url(#path-107-inside-41_9_119)"/>
<mask id="path-109-inside-42_9_119" fill="white">
<ellipse cx="1727.98" cy="913.006" rx="5.12813" ry="5.12813" transform="rotate(-53.9313 1727.98 913.006)"/>
</mask>
<path d="M1725.25 916.761C1723.17 915.25 1722.72 912.345 1724.23 910.271L1740.03 921.779C1744.87 915.127 1743.41 905.806 1736.76 900.96L1725.25 916.761ZM1724.23 910.271C1725.74 908.197 1728.64 907.74 1730.72 909.251L1719.21 925.051C1725.86 929.897 1735.18 928.432 1740.03 921.779L1724.23 910.271ZM1730.72 909.251C1732.79 910.761 1733.25 913.667 1731.74 915.741L1715.94 904.232C1711.09 910.885 1712.56 920.206 1719.21 925.051L1730.72 909.251ZM1731.74 915.741C1730.23 917.815 1727.32 918.272 1725.25 916.761L1736.76 900.96C1730.1 896.115 1720.78 897.58 1715.94 904.232L1731.74 915.741Z" fill="black" mask="url(#path-109-inside-42_9_119)"/>
<path d="M316.937 630.669C327.099 610.772 352.062 603.904 372.78 614.06C397.122 625.992 418.721 635.266 444.022 643.81C465.545 651.079 478.342 673.112 471.419 693.781C465.931 710.167 460.117 724.728 453.416 739.458C448.587 750.074 443.291 760.791 437.311 772.366C430.469 785.609 415.504 792.526 401.087 789.015C363.987 779.981 336.666 770.318 304.673 751.233C289.379 742.11 282.466 723.554 287.485 706.241L287.603 705.833C291.233 693.345 294.936 682.012 299.014 671.143C304.168 657.408 309.936 644.377 316.937 630.669Z" stroke="black" stroke-width="9.77395"/>
<path d="M1252.2 961.739C1257.36 951.624 1270.19 947.938 1281.04 953.259C1294.91 960.056 1307.24 965.353 1321.7 970.233C1332.99 974.047 1339.39 985.462 1335.9 995.892C1332.81 1005.11 1329.54 1013.3 1325.77 1021.59C1323.05 1027.57 1320.07 1033.61 1316.69 1040.15C1313.25 1046.81 1305.74 1050.27 1298.53 1048.51C1277.71 1043.44 1262.46 1038.05 1244.64 1027.44C1236.71 1022.73 1233.07 1013.06 1235.71 1003.99C1237.76 996.948 1239.84 990.574 1242.13 984.47C1245.02 976.761 1248.26 969.445 1252.2 961.739Z" stroke="black" stroke-width="9.77395"/>
<path d="M1841.67 1165.79C1851.83 1145.9 1876.8 1139.03 1897.52 1149.18C1921.86 1161.12 1943.46 1170.39 1968.76 1178.93C1990.28 1186.2 2003.08 1208.24 1996.16 1228.9C1990.67 1245.29 1984.85 1259.85 1978.15 1274.58C1973.32 1285.2 1968.03 1295.91 1962.05 1307.49C1955.21 1320.73 1940.24 1327.65 1925.82 1324.14C1888.72 1315.1 1861.4 1305.44 1829.41 1286.36C1814.11 1277.23 1807.2 1258.68 1812.22 1241.36L1812.34 1240.96C1815.97 1228.47 1819.67 1217.14 1823.75 1206.27C1828.9 1192.53 1834.67 1179.5 1841.67 1165.79Z" stroke="black" stroke-width="9.77395"/>
<path d="M487.646 2052.01C497.808 2032.11 522.772 2025.25 543.49 2035.4C567.831 2047.34 589.431 2056.61 614.731 2065.15C636.254 2072.42 649.052 2094.46 642.129 2115.12C636.64 2131.51 630.826 2146.07 624.125 2160.8C619.296 2171.42 614.001 2182.13 608.021 2193.71C601.179 2206.95 586.214 2213.87 571.796 2210.36C534.696 2201.32 507.375 2191.66 475.382 2172.58C460.088 2163.45 453.175 2144.9 458.194 2127.58L458.313 2127.18C461.942 2114.69 465.645 2103.35 469.724 2092.49C474.877 2078.75 480.645 2065.72 487.646 2052.01Z" stroke="black" stroke-width="9.77395"/>
<path d="M346.369 71.2388C336.207 91.1355 311.244 98.0035 290.526 87.8475C266.184 75.9155 244.585 66.6413 219.284 58.0973C197.761 50.8291 184.964 28.7953 191.887 8.12637C197.375 -8.25964 203.189 -22.82 209.89 -37.5503C214.719 -48.1659 220.015 -58.8833 225.995 -70.4581C232.837 -83.7013 247.802 -90.6186 262.22 -87.1078C299.32 -78.0735 326.641 -68.4101 358.633 -49.3252C373.927 -40.2019 380.841 -21.646 375.821 -4.33351L375.703 -3.92538C372.073 8.56284 368.37 19.8959 364.292 30.7652C359.138 44.4992 353.371 57.5303 346.369 71.2388Z" stroke="black" stroke-width="9.77395"/>
<path d="M1030.06 -22.1611C1019.9 -2.26436 994.936 4.60356 974.218 -5.55235C949.877 -17.4844 928.277 -26.7586 902.977 -35.3026C881.454 -42.5708 868.656 -64.6046 875.579 -85.2735C881.068 -101.66 886.882 -116.22 893.583 -130.95C898.412 -141.566 903.707 -152.283 909.687 -163.858C916.529 -177.101 931.494 -184.019 945.912 -180.508C983.012 -171.473 1010.33 -161.81 1042.33 -142.725C1057.62 -133.602 1064.53 -115.046 1059.51 -97.7334L1059.4 -97.3253C1055.77 -84.8371 1052.06 -73.504 1047.98 -62.6347C1042.83 -48.9007 1037.06 -35.8696 1030.06 -22.1611Z" stroke="black" stroke-width="9.77395"/>
<path d="M267.917 3118.81C257.755 3138.71 232.791 3145.58 212.073 3135.42C187.732 3123.49 166.132 3114.21 140.832 3105.67C119.309 3098.4 106.511 3076.37 113.434 3055.7C118.923 3039.31 124.737 3024.75 131.438 3010.02C136.267 2999.41 141.562 2988.69 147.542 2977.11C154.384 2963.87 169.349 2956.95 183.767 2960.46C220.867 2969.5 248.188 2979.16 280.181 2998.25C295.475 3007.37 302.388 3025.93 297.369 3043.24L297.25 3043.65C293.621 3056.14 289.918 3067.47 285.839 3078.34C280.686 3092.07 274.918 3105.1 267.917 3118.81Z" stroke="black" stroke-width="9.77395"/>
<path d="M1549.34 2031.64C1539.18 2051.54 1514.22 2058.41 1493.5 2048.25C1469.16 2036.32 1447.56 2027.05 1422.26 2018.5C1400.73 2011.23 1387.94 1989.2 1394.86 1968.53C1400.35 1952.14 1406.16 1937.58 1412.86 1922.85C1417.69 1912.24 1422.99 1901.52 1428.97 1889.95C1435.81 1876.7 1450.77 1869.79 1465.19 1873.3C1502.29 1882.33 1529.61 1891.99 1561.61 1911.08C1576.9 1920.2 1583.81 1938.76 1578.79 1956.07L1578.67 1956.48C1575.04 1968.97 1571.34 1980.3 1567.26 1991.17C1562.11 2004.9 1556.34 2017.93 1549.34 2031.64Z" stroke="black" stroke-width="9.77395"/>
</g>
</svg>
