<svg width="450" height="466" viewBox="0 0 450 466" fill="none" xmlns="http://www.w3.org/2000/svg">
<path d="M73.6071 384.71C61.5557 342.625 56.8647 298.261 81.2925 259.431C83.4155 256.059 85.7657 252.835 88.3268 249.783C99.9646 245.696 112.027 242.903 123.785 239.192C143.826 232.86 161.269 221.756 178.524 209.961C193.111 199.991 206.734 189.868 215.089 173.95C222.787 159.365 225.75 142.752 226.536 126.471C226.888 118.727 226.801 110.97 226.275 103.236C230.225 104.372 234.123 105.716 237.965 107.078C252.547 112.262 266.591 118.857 280.393 125.841C306.906 139.245 332.752 154.322 360.968 164.07C381.172 171.043 402.826 175.528 424.288 174.323L449.173 146.552C390.578 142.385 342.749 104.683 289.884 83.3618C276.855 78.0779 261.368 71.3848 247.022 72.8298C236.777 73.8942 227.851 80.4383 219.444 85.8352C210.784 91.183 202.406 96.9724 194.341 103.18C191.574 105.186 189.164 107.643 187.212 110.448C183.356 116.459 184.149 123.44 184.591 130.215C185.08 137.309 185.207 144.423 184.974 151.531C184.483 165.565 182.414 179.757 177.306 192.904C174.895 199.276 171.636 205.293 167.615 210.793C159.765 213.44 151.685 215.519 143.757 217.773C129.79 221.747 116.566 226.614 104.003 233.981C89.9696 242.149 76.4561 251.179 63.5408 261.02C57.8682 265.277 52.6644 270.125 48.0174 275.482C32.9575 293.233 24.7832 315.932 22.5321 338.943L73.6071 384.71Z" fill="url(#paint0_linear_59_68)"/>
<path d="M231.982 78.0309C231.982 78.0309 225.687 88.5028 226.55 126.456C227.412 164.409 211.911 196.453 151.511 226.951C151.511 226.951 176.499 209.704 181.869 177.308C186.888 147.042 184.082 138.096 184.198 120.584C184.341 98.9062 231.982 78.0309 231.982 78.0309Z" fill="url(#paint1_linear_59_68)"/>
<defs>
<linearGradient id="paint0_linear_59_68" x1="483.816" y1="-56.5522" x2="33.3192" y2="446.199" gradientUnits="userSpaceOnUse">
<stop offset="0.01" stop-color="#EFCE31"/>
<stop offset="0.15" stop-color="#D28F06"/>
<stop offset="0.3" stop-color="#FEFAC8"/>
<stop offset="0.32" stop-color="#F7EFB7"/>
<stop offset="0.38" stop-color="#E4D48A"/>
<stop offset="0.46" stop-color="#C7A742"/>
<stop offset="0.48" stop-color="#BC9728"/>
<stop offset="0.58" stop-color="#E1CE83"/>
<stop offset="0.66" stop-color="#FEFACB"/>
<stop offset="0.8" stop-color="#D39C4A"/>
<stop offset="1" stop-color="#FEFBD3"/>
</linearGradient>
<linearGradient id="paint1_linear_59_68" x1="217.212" y1="279.217" x2="165.425" y2="21.3718" gradientUnits="userSpaceOnUse">
<stop offset="0.01" stop-color="#EFCE31"/>
<stop offset="0.15" stop-color="#D28F06"/>
<stop offset="0.3" stop-color="#FEFAC8"/>
<stop offset="0.32" stop-color="#F7EFB7"/>
<stop offset="0.38" stop-color="#E4D48A"/>
<stop offset="0.46" stop-color="#C7A742"/>
<stop offset="0.48" stop-color="#BC9728"/>
<stop offset="0.58" stop-color="#E1CE83"/>
<stop offset="0.66" stop-color="#FEFACB"/>
<stop offset="0.8" stop-color="#D39C4A"/>
<stop offset="1" stop-color="#FEFBD3"/>
</linearGradient>
</defs>
</svg>
