<svg width="143" height="299" viewBox="0 0 143 299" fill="none" xmlns="http://www.w3.org/2000/svg">
<path d="M142 295.99C141.82 295.65 141.73 295.48 141.82 295.62C139.9 292.53 137.82 289.48 135.77 286.49C133.72 283.5 131.6 280.49 129.38 277.57C128.66 276.62 127.5 274.57 126.38 274.09C109.54 267.38 92.67 258.77 79.09 246.09C78.46 245.51 77.85 244.9 77.24 244.3C76.78 243.19 76.34 242.07 75.95 240.94C73.4602 233.55 72.2528 225.788 72.38 217.99C72.62 182.99 94.11 155.9 105.45 125.15C108.2 117.68 111.76 108.81 110.45 100.31C109.53 94.25 105.38 88.76 101.93 83.62C98.48 78.48 94.88 73.12 90.93 68.23C89.6491 66.5273 88.1225 65.0242 86.4 63.77C82.71 61.28 78.59 61.5 74.57 61.52C70.3371 61.5579 66.105 61.381 61.89 60.99C53.3486 60.3129 44.9682 58.2878 37.06 54.99C33.1733 53.3294 29.5057 51.1967 26.14 48.64C24.34 43.93 22.88 39.11 21.31 34.37C18.6915 25.9685 15.0757 17.9111 10.54 10.37C8.37001 6.88 6.11001 3.42 3.79001 0H0L0.709991 0.61C3.47999 7.61 5.47999 14.79 8.01999 21.83C12.36 33.83 19.45 44.49 27.02 55.08C33.37 64.02 39.77 72.4 49.48 77.89C58.37 82.89 68.34 85.29 78.06 86.35C82.6472 86.8334 87.2575 87.0638 91.87 87.04C91.31 89.32 90.62 91.56 89.92 93.77C87.1652 102.082 83.8406 110.195 79.97 118.05C72.75 133.15 64.51 147.82 59.52 164.05C55.23 178.05 53.12 193.4 56.52 208.63C58.5278 217.061 61.935 225.096 66.6 232.4C74.16 244.72 82.6 257.53 92.86 268.02C106.61 282.02 124.32 291.56 142.08 298.8L142 295.99Z" fill="url(#paint0_linear_59_67)"/>
<defs>
<linearGradient id="paint0_linear_59_67" x1="186.115" y1="253.344" x2="-126.798" y2="-29.9689" gradientUnits="userSpaceOnUse">
<stop offset="0.01" stop-color="#EFCE31"/>
<stop offset="0.15" stop-color="#A46914"/>
<stop offset="0.3" stop-color="#E8C362"/>
<stop offset="0.33" stop-color="#D7B257"/>
<stop offset="0.4" stop-color="#AC853A"/>
<stop offset="0.48" stop-color="#724A14"/>
<stop offset="0.57" stop-color="#B8A26F"/>
<stop offset="0.66" stop-color="#FEFACB"/>
<stop offset="0.8" stop-color="#7E4C2A"/>
<stop offset="1" stop-color="#FEFBD3"/>
</linearGradient>
</defs>
</svg>
