<svg width="86" height="183" viewBox="0 0 86 183" fill="none" xmlns="http://www.w3.org/2000/svg">
<path d="M35 170.5C36.3291 158.496 35.1628 151.734 28.5 139.5H41C41 150.5 40 159.5 42 168C39.9167 172.132 38.4925 173.207 35 170.5Z" fill="#FDF9F1"/>
<path d="M28.5 139.5C35.1628 151.734 36.3291 158.496 35 170.5C38.4925 173.207 39.9167 172.132 42 168C40 159.5 41 150.5 41 139.5H27.5" stroke="black" stroke-linecap="round" stroke-linejoin="round"/>
<path d="M41.5004 159.5C41.4557 175.7 34.1641 166.563 34.4998 161C34.8355 155.437 31.7454 183.842 38.5002 181.5C45.2551 179.158 43.1105 173.613 41.5004 159.5Z" fill="#48312D" stroke="black" stroke-linecap="round" stroke-linejoin="round"/>
<path d="M52.6465 170C51.3173 157.996 52.4837 151.234 59.1465 139H46.6465C46.6465 150 47.6465 159 45.6465 167.5C47.7298 171.632 49.1539 172.707 52.6465 170Z" fill="#FDF9F1"/>
<path d="M59.1465 139C52.4837 151.234 51.3173 157.996 52.6465 170C49.1539 172.707 47.7298 171.632 45.6465 167.5C47.6465 159 46.6465 150 46.6465 139H60.1465" stroke="black" stroke-linecap="round" stroke-linejoin="round"/>
<path d="M46.1461 159C46.1908 175.2 53.4824 166.063 53.1467 160.5C52.8109 154.937 55.9011 183.342 49.1462 181C42.3914 178.658 44.536 173.113 46.1461 159Z" fill="#48312D" stroke="black" stroke-linecap="round" stroke-linejoin="round"/>
<path d="M18.9688 110.22C19.4213 101.525 19.9863 90.6676 19.9996 76.5H66.9368C65.2667 90.7528 66.0112 100.776 66.8143 109.981C66.8536 110.432 66.8931 110.881 66.9324 111.328C67.6987 120.042 68.4106 128.138 67.0428 138.641C60.1644 141.287 51.5973 142.499 43.1285 142.438C34.6497 142.376 26.3117 141.039 19.9114 138.622C18.2177 132.638 18.2165 126.014 18.6579 116.42C18.7472 114.48 18.8544 112.419 18.9688 110.22Z" fill="#A5D6F2" stroke="black"/>
<circle cx="44" cy="88.5" r="2" fill="#CFE9F8" stroke="black"/>
<circle cx="44" cy="97.5" r="2" fill="#CFE9F8" stroke="black"/>
<circle cx="44" cy="105.5" r="2" fill="#CFE9F8" stroke="black"/>
<path d="M54.695 30.0893C59.1321 23.7882 60.602 15.2162 59.0802 3.87001M1.14659 79.4045C3.97526 77.6587 6.36685 75.3829 7.97312 71.7517C9.56652 68.1497 10.3691 63.2544 10.1174 56.2917C16.6907 68.3963 27.8496 77.5 43 77.5C58.1991 77.5 68.4691 68.3388 74.9365 56.2061C74.8806 62.2512 75.8377 66.8717 77.4997 70.5437C79.2509 74.4128 81.7696 77.1954 84.6449 79.4703C84.1632 79.7179 83.4838 79.9375 82.6046 80.1182C81.3566 80.3747 79.783 80.5388 77.9739 80.6286C74.3574 80.8082 69.8582 80.6887 65.2611 80.4478C60.8991 80.2192 56.4624 79.882 52.6253 79.5904C52.4207 79.5748 52.2177 79.5594 52.0166 79.5441C48.0565 79.2434 44.774 79 43 79C41.2297 79 38.0563 79.1988 34.2178 79.4448L33.6776 79.4794C29.9482 79.7186 25.6229 79.996 21.3109 80.1838C16.7877 80.3808 12.2898 80.4787 8.51877 80.3316C6.63314 80.2581 4.93758 80.1235 3.51599 79.9115C2.59059 79.7734 1.79584 79.6045 1.14659 79.4045ZM69.713 41.6644C65.6683 39.8939 61.1947 36.4862 55.0556 30.4453C59.5889 24.0544 61.0853 15.4156 59.6164 4.1116C72.8512 10.1936 82 23.31 82 38.5C82 40.0403 81.906 41.5591 81.7232 43.0511C77.2823 43.5794 73.6852 43.4032 69.713 41.6644ZM58.5439 3.63801C60.1573 15.3138 58.5969 23.9565 53.9966 30.2035C50.1276 35.4574 44.0581 39.0868 35.7304 41.3759C27.4904 43.6408 17.0763 44.5829 4.48382 44.503C4.16542 42.548 4 40.543 4 38.5C4 17.5252 21.4487 0.5 43 0.5C48.5261 0.5 53.7824 1.6196 58.5439 3.63801Z" fill="#752823" stroke="black"/>
<path d="M18.4174 77.2453C19.0234 75.5509 20.2729 73.6577 22.0755 71.6017C24.0346 72.4432 25.756 73.2322 27.3267 73.952C33.4 76.7354 37.2203 78.4863 43.8205 78.2536C43.8015 78.3118 43.781 78.3733 43.759 78.4379C43.5804 78.9628 43.3043 79.6867 42.9154 80.4799C42.1316 82.0781 40.9175 83.9005 39.1722 84.9799C36.0974 86.8815 31.4308 86.7991 27.2128 85.8245C25.1202 85.3411 23.1759 84.6463 21.6489 83.9003C20.8852 83.5273 20.2335 83.1452 19.7226 82.7753C19.2052 82.4008 18.8602 82.0589 18.6786 81.7747C17.8631 80.4985 17.7906 78.9981 18.4174 77.2453Z" fill="white" stroke="black"/>
<path d="M65.144 76.8516C64.6329 75.2787 63.5846 73.5243 62.0742 71.6203C60.4429 72.3929 59.0041 73.1187 57.688 73.7827C52.536 76.3817 49.2622 78.0333 43.6626 77.8347C43.6761 77.8799 43.6905 77.9272 43.7057 77.9763C43.8579 78.4686 44.0931 79.1471 44.4242 79.8903C45.0931 81.3915 46.1244 83.09 47.5958 84.0915C50.1802 85.8505 54.1157 85.7812 57.6988 84.8702C59.4735 84.4189 61.1221 83.7704 62.416 83.0749C63.7356 82.3654 64.6046 81.6501 64.9225 81.1026C65.616 79.9082 65.6789 78.4976 65.144 76.8516Z" fill="white" stroke="black"/>
<path d="M21.3546 71.3539C21.7579 70.9507 22.6115 70.6597 23.8061 70.5587C24.9695 70.4604 26.3454 70.5512 27.6681 70.8015C28.9937 71.0524 30.2323 71.457 31.1325 71.9653C32.065 72.4918 32.4837 73.039 32.5025 73.5196C32.749 79.8082 32.6906 84.4508 32.6435 88.1934L32.6418 88.3225C32.5946 92.0802 32.5615 94.9588 32.8777 97.6851C33.5144 103.173 35.562 108.002 41.5656 118.259C41.8412 118.729 41.8715 119.256 41.6786 119.852C41.476 120.478 41.031 121.16 40.3965 121.855C39.7659 122.546 38.9703 123.227 38.1014 123.853C36.3579 125.108 34.3701 126.108 32.9267 126.527C32.4491 126.665 32.0501 126.739 31.7546 126.745C31.4566 126.751 31.382 126.687 31.3812 126.688C31.3811 126.688 31.3816 126.689 31.3827 126.69C20.2127 113.032 17.1242 99.7691 17.125 89.6259C17.1254 84.5505 17.8995 80.2536 18.8247 77.0775C19.2874 75.4892 19.7866 74.1855 20.2431 73.2078C20.7078 72.2128 21.1075 71.601 21.3546 71.3539Z" fill="white" stroke="black"/>
<path d="M34.1101 127.527C34.0018 127.439 33.9099 127.358 33.8334 127.283C35.3134 126.755 37.1064 125.802 38.6876 124.663C39.5966 124.009 40.4482 123.283 41.1369 122.528C41.6237 121.995 42.0407 121.434 42.3358 120.862C42.98 121.42 43.7989 121.984 44.6489 122.443C45.7484 123.038 46.9777 123.503 47.9975 123.505C48.9691 123.508 49.463 123.775 49.6536 124.007C49.8057 124.192 49.8383 124.448 49.5946 124.771C49.3366 125.112 48.7759 125.488 47.8471 125.682C46.9272 125.874 45.6797 125.881 44.1105 125.519C43.915 125.474 43.7116 125.55 43.5936 125.712C43.4757 125.874 43.4661 126.091 43.5693 126.263C44.0328 127.036 44.9374 127.551 45.8649 127.941C46.6055 128.253 47.442 128.516 48.2204 128.76C48.4324 128.827 48.6401 128.892 48.8403 128.956C49.817 129.271 50.579 129.557 50.9963 129.886C51.1947 130.042 51.2537 130.161 51.2673 130.24C51.2799 130.314 51.2717 130.461 51.0902 130.717C50.4273 131.651 49.1042 132.087 47.2893 132.076C45.4987 132.065 43.3721 131.617 41.3098 130.959C39.2518 130.303 37.2891 129.448 35.8338 128.643C35.1047 128.24 34.5164 127.858 34.1101 127.527Z" fill="#FDF9F2" stroke="black" stroke-linejoin="round"/>
<path d="M64.452 71.0702C64.4438 71.0592 64.436 71.0489 64.4286 71.0394C63.6421 71.2345 62.5662 71.3007 61.4315 71.3358C60.9559 71.3505 60.4677 71.3597 59.9748 71.369C59.1447 71.3848 58.3011 71.4007 57.4806 71.4435C56.1737 71.5117 55.0095 71.6456 54.1763 71.9295C53.3294 72.218 53.0146 72.5859 52.9976 73.0213C52.7484 79.3755 52.9254 84.034 53.1442 87.7705C53.195 88.6383 53.2484 89.4593 53.2992 90.2421C53.4666 92.8176 53.6071 94.9809 53.5432 97.0464C53.3745 102.501 51.7829 107.292 45.7702 117.564C45.4945 118.035 45.4642 118.561 45.6571 119.157C45.8597 119.783 46.3047 120.465 46.9392 121.16C47.5698 121.851 48.3654 122.532 49.2343 123.158C50.9778 124.414 52.9656 125.413 54.409 125.832C54.8874 125.97 55.2882 126.045 55.5846 126.052C55.8757 126.059 55.9487 125.998 55.9497 125.999C55.9499 125.999 55.9488 126.001 55.9468 126.003C66.1875 112.961 68.5406 99.0321 68.1678 88.4065C67.9813 83.0925 67.1129 78.6111 66.2121 75.491C65.7612 73.9294 65.3049 72.7184 64.9269 71.919C64.7364 71.516 64.5742 71.2358 64.452 71.0702Z" fill="white" stroke="black"/>
<path d="M53.2258 126.832C53.3341 126.744 53.4261 126.662 53.5025 126.588C52.0225 126.059 50.2296 125.107 48.6484 123.968C47.7394 123.313 46.8878 122.588 46.1991 121.833C45.7122 121.3 45.2953 120.739 45.0002 120.167C44.356 120.725 43.537 121.288 42.687 121.748C41.5876 122.343 40.3583 122.808 39.3385 122.81C38.3668 122.813 37.8729 123.079 37.6823 123.312C37.5302 123.497 37.4977 123.753 37.7414 124.076C37.9993 124.417 38.5601 124.792 39.4889 124.987C40.4087 125.179 41.6563 125.185 43.2255 124.823C43.4209 124.778 43.6244 124.854 43.7423 125.017C43.8603 125.179 43.8698 125.396 43.7666 125.568C43.3032 126.34 42.3985 126.856 41.471 127.246C40.7304 127.558 39.8939 127.82 39.1156 128.065C38.9036 128.131 38.6959 128.196 38.4956 128.261C37.5189 128.575 36.7569 128.862 36.3396 129.19C36.1413 129.346 36.0822 129.465 36.0686 129.545C36.056 129.619 36.0642 129.765 36.2457 130.021C36.9086 130.956 38.2317 131.391 40.0466 131.38C41.8372 131.369 43.9639 130.922 46.0261 130.264C48.0842 129.608 50.0468 128.752 51.5021 127.948C52.2313 127.545 52.8196 127.162 53.2258 126.832Z" fill="#FDF9F2" stroke="black" stroke-linejoin="round"/>
<path d="M11.7823 48.8076C12.6351 51.2556 11.6967 53.5921 9.98075 54.1899C8.26484 54.7876 6.07782 53.5398 5.22506 51.0918C4.37229 48.6438 5.31069 46.3073 7.0266 45.7095C8.74251 45.1118 10.9295 46.3596 11.7823 48.8076Z" fill="#F1E6DF" stroke="black"/>
<path d="M74.1142 48.8769C73.2614 51.3249 74.1998 53.6615 75.9157 54.2592C77.6316 54.857 79.8187 53.6091 80.6714 51.1611C81.5242 48.7132 80.5858 46.3766 78.8699 45.7789C77.154 45.1811 74.9669 46.4289 74.1142 48.8769Z" fill="#F1E6DF" stroke="black"/>
<path d="M78.498 41.5C78.498 61.3888 62.5977 77.5 42.998 77.5C23.3984 77.5 7.49805 61.3888 7.49805 41.5C7.49805 21.6112 23.3984 5.5 42.998 5.5C62.5977 5.5 78.498 21.6112 78.498 41.5Z" fill="#F1E6DF" stroke="black"/>
<path d="M54.631 29.9703C57.6061 23.1953 60.5422 15.1512 59.0769 3.86943M42.998 0.5C48.5241 0.5 53.7802 1.61956 58.5417 3.63788C60.1164 15.2084 57.0202 23.343 53.9624 30.2472C50.0919 35.4776 44.0331 39.0932 35.7284 41.3759C27.4885 43.6408 17.0744 44.5829 4.48187 44.503C4.16346 42.548 3.99805 40.543 3.99805 38.5C3.99805 17.5252 21.4468 0.5 42.998 0.5ZM54.9712 30.4383C57.9727 23.6373 61.0205 15.5139 59.6114 4.1102C72.8478 10.1915 81.998 23.3089 81.998 38.5C81.998 40.0398 81.9041 41.5581 81.7215 43.0496C72.7191 44.053 62.3517 40.4689 54.9712 30.4383Z" fill="#752823" stroke="black"/>
<path d="M16.998 51C17.7012 51.8841 18.8649 52.6138 20.288 53.1285M33.998 51C33.5507 51.75 32.6559 52.875 31.7612 53.25M20.288 53.1285C20.0861 54.169 19.8612 55.725 18.7875 56.625M20.288 53.1285C21.8099 53.6789 23.6286 53.9833 25.498 53.9675M25.498 53.9675V56.625M25.498 53.9675C27.6696 53.9491 29.7612 53.9593 31.7612 53.25M31.7612 53.25C30.5829 54.5285 31.3138 56.4 33.1033 57" stroke="black" stroke-width="1.5" stroke-linecap="round" stroke-linejoin="round"/>
<path d="M52.998 51C53.7012 51.8841 54.8649 52.6138 56.288 53.1285M69.998 51C69.5507 51.75 68.6559 52.875 67.7612 53.25M56.288 53.1285C56.0861 54.169 55.8612 55.725 54.7875 56.625M56.288 53.1285C57.8099 53.6789 59.6286 53.9833 61.498 53.9675M61.498 53.9675V56.625M61.498 53.9675C63.6696 53.9491 65.7612 53.9593 67.7612 53.25M67.7612 53.25C66.5829 54.5285 67.3138 56.4 69.1033 57" stroke="black" stroke-width="1.5" stroke-linecap="round" stroke-linejoin="round"/>
<ellipse cx="43.998" cy="60.499" rx="2.5" ry="3.5" fill="#E6C2B1"/>
<ellipse opacity="0.45" cx="27.498" cy="65" rx="2.5" ry="2" fill="#E6C2B1"/>
<ellipse opacity="0.45" cx="61.498" cy="65" rx="2.5" ry="2" fill="#E6C2B1"/>
<path d="M43.9922 57.0693C40.498 57.999 40.498 61.999 42.9922 64.0693" stroke="black" stroke-width="2" stroke-linecap="round" stroke-linejoin="round"/>
<path d="M41 72C41.5556 73.3333 45.7222 73.3333 46 72" stroke="#E6C2B1" stroke-width="2" stroke-linecap="round"/>
</svg>
