<svg width="86" height="183" viewBox="0 0 86 183" fill="none" xmlns="http://www.w3.org/2000/svg">
<path d="M35 170.5C36.3291 158.496 35.1628 151.734 28.5 139.5H41C41 150.5 40 159.5 42 168C39.9167 172.132 38.4925 173.207 35 170.5Z" fill="#FDF9F1"/>
<path d="M28.5 139.5C35.1628 151.734 36.3291 158.496 35 170.5C38.4925 173.207 39.9167 172.132 42 168C40 159.5 41 150.5 41 139.5H27.5" stroke="black" stroke-linecap="round" stroke-linejoin="round"/>
<path d="M41.5004 159.5C41.4557 175.7 34.1641 166.563 34.4998 161C34.8355 155.437 31.7454 183.842 38.5002 181.5C45.2551 179.158 43.1105 173.613 41.5004 159.5Z" fill="#48312D" stroke="black" stroke-linecap="round" stroke-linejoin="round"/>
<path d="M52.6465 170C51.3173 157.996 52.4837 151.234 59.1465 139H46.6465C46.6465 150 47.6465 159 45.6465 167.5C47.7298 171.632 49.1539 172.707 52.6465 170Z" fill="#FDF9F1"/>
<path d="M59.1465 139C52.4837 151.234 51.3173 157.996 52.6465 170C49.1539 172.707 47.7298 171.632 45.6465 167.5C47.6465 159 46.6465 150 46.6465 139H60.1465" stroke="black" stroke-linecap="round" stroke-linejoin="round"/>
<path d="M46.1461 159C46.1908 175.2 53.4824 166.063 53.1467 160.5C52.8109 154.937 55.9011 183.342 49.1462 181C42.3914 178.658 44.536 173.113 46.1461 159Z" fill="#48312D" stroke="black" stroke-linecap="round" stroke-linejoin="round"/>
<path d="M18.9688 110.22C19.4213 101.525 19.9863 90.6676 19.9996 76.5H66.9368C65.2667 90.7528 66.0112 100.776 66.8143 109.981C66.8536 110.432 66.8931 110.881 66.9324 111.328C67.6987 120.042 68.4106 128.138 67.0428 138.641C60.1644 141.287 51.5973 142.499 43.1285 142.438C34.6497 142.376 26.3117 141.039 19.9114 138.622C18.2177 132.638 18.2165 126.014 18.6579 116.42C18.7472 114.48 18.8544 112.419 18.9688 110.22Z" fill="#A5D6F2" stroke="black"/>
<circle cx="44" cy="88.5" r="2" fill="#CFE9F8" stroke="black"/>
<circle cx="44" cy="97.5" r="2" fill="#CFE9F8" stroke="black"/>
<circle cx="44" cy="105.5" r="2" fill="#CFE9F8" stroke="black"/>
<path d="M54.7508 30.1445L54.3396 29.7377L53.9966 30.2035C50.1276 35.4574 44.0581 39.0868 35.7304 41.3759C27.4904 43.6408 17.0763 44.5829 4.48382 44.503C4.16542 42.548 4 40.543 4 38.5C4 17.5252 21.4487 0.5 43 0.5C48.626 0.5 53.9723 1.66043 58.8016 3.7483C72.4742 9.65941 82 23.0003 82 38.5C82 40.0403 81.906 41.5591 81.7232 43.0511C77.2823 43.5794 73.6852 43.4032 69.713 41.6644C65.6016 39.8648 61.0472 36.3735 54.7508 30.1445ZM84.6449 79.4703C84.1633 79.7179 83.4838 79.9375 82.6046 80.1182C81.3566 80.3747 79.783 80.5388 77.9739 80.6286C74.3574 80.8082 69.8582 80.6888 65.2611 80.4478C60.8991 80.2192 56.4624 79.882 52.6253 79.5904C52.4207 79.5748 52.2177 79.5594 52.0166 79.5441C48.0565 79.2434 44.774 79 43 79C41.2297 79 38.0563 79.1988 34.2178 79.4448L33.6776 79.4794C29.9482 79.7186 25.6229 79.996 21.3109 80.1838C16.7877 80.3808 12.2898 80.4787 8.51877 80.3316C6.63314 80.2581 4.93758 80.1235 3.51599 79.9115C2.59059 79.7734 1.79584 79.6045 1.14659 79.4045C3.97526 77.6587 6.36685 75.3829 7.97312 71.7517C9.56652 68.1497 10.3691 63.2544 10.1174 56.2917C16.6907 68.3963 27.8496 77.5 43 77.5C58.1991 77.5 68.4691 68.3388 74.9365 56.2061C74.8806 62.2512 75.8377 66.8717 77.4997 70.5437C79.2509 74.4128 81.7696 77.1954 84.6449 79.4703Z" fill="#752823" stroke="black"/>
<path d="M18.4174 77.2453C19.0234 75.5509 20.2729 73.6577 22.0755 71.6017C24.0346 72.4432 25.756 73.2322 27.3267 73.952C33.4 76.7354 37.2203 78.4863 43.8205 78.2536C43.8015 78.3118 43.781 78.3733 43.759 78.4379C43.5804 78.9628 43.3043 79.6867 42.9154 80.4799C42.1316 82.0781 40.9175 83.9005 39.1722 84.9799C36.0974 86.8815 31.4308 86.7991 27.2128 85.8245C25.1202 85.3411 23.1759 84.6463 21.6489 83.9003C20.8852 83.5273 20.2335 83.1452 19.7226 82.7753C19.2052 82.4008 18.8602 82.0589 18.6786 81.7747C17.8631 80.4985 17.7906 78.9981 18.4174 77.2453Z" fill="white" stroke="black"/>
<path d="M65.144 76.8516C64.6329 75.2787 63.5846 73.5243 62.0742 71.6203C60.4429 72.3929 59.0041 73.1187 57.688 73.7827C52.536 76.3817 49.2622 78.0333 43.6626 77.8347C43.6761 77.8799 43.6905 77.9272 43.7057 77.9763C43.8579 78.4686 44.0931 79.1471 44.4242 79.8903C45.0931 81.3915 46.1244 83.09 47.5958 84.0915C50.1802 85.8505 54.1157 85.7812 57.6988 84.8702C59.4735 84.4189 61.1221 83.7704 62.416 83.0749C63.7356 82.3654 64.6046 81.6501 64.9225 81.1026C65.616 79.9082 65.6789 78.4976 65.144 76.8516Z" fill="white" stroke="black"/>
<path d="M21.3546 71.3539C21.7579 70.9507 22.6115 70.6597 23.8061 70.5587C24.9695 70.4604 26.3454 70.5512 27.6681 70.8015C28.9937 71.0524 30.2323 71.457 31.1325 71.9653C32.065 72.4918 32.4837 73.039 32.5025 73.5196C32.749 79.8082 32.6906 84.4508 32.6435 88.1934L32.6418 88.3225C32.5946 92.0802 32.5615 94.9588 32.8777 97.6851C33.5144 103.173 35.562 108.002 41.5656 118.259C41.8412 118.729 41.8715 119.256 41.6786 119.852C41.476 120.478 41.031 121.16 40.3965 121.855C39.7659 122.546 38.9703 123.227 38.1014 123.853C36.3579 125.108 34.3701 126.108 32.9267 126.527C32.4491 126.665 32.0501 126.739 31.7546 126.745C31.4566 126.751 31.382 126.687 31.3812 126.688C31.3811 126.688 31.3816 126.689 31.3827 126.69C20.2127 113.032 17.1242 99.7691 17.125 89.6259C17.1254 84.5505 17.8995 80.2536 18.8247 77.0775C19.2874 75.4892 19.7866 74.1855 20.2431 73.2078C20.7078 72.2128 21.1075 71.601 21.3546 71.3539Z" fill="white" stroke="black"/>
<path d="M33.8332 127.283C35.3132 126.755 37.1061 125.802 38.6873 124.663C39.5963 124.009 40.4479 123.283 41.1366 122.528C41.6235 121.995 42.0404 121.434 42.3355 120.862C42.9797 121.42 43.7987 121.984 44.6487 122.443C45.7481 123.038 46.9774 123.503 47.9972 123.505C48.9688 123.508 49.4628 123.775 49.6534 124.007C49.8055 124.192 49.838 124.448 49.5943 124.771C49.3364 125.112 48.7756 125.488 47.8468 125.682C46.927 125.874 45.6794 125.881 44.1102 125.519C43.9148 125.474 43.7113 125.55 43.5934 125.712C43.4754 125.874 43.4659 126.091 43.5691 126.263C44.0325 127.036 44.9372 127.551 45.8647 127.941C46.6053 128.253 47.4418 128.516 48.2201 128.76C48.4321 128.827 48.6398 128.892 48.8401 128.956C49.8168 129.271 50.5788 129.557 50.996 129.886C51.1944 130.042 51.2535 130.161 51.2671 130.24C51.2797 130.314 51.2715 130.461 51.0899 130.717C50.4271 131.651 49.104 132.087 47.2891 132.076C45.4984 132.065 43.3718 131.617 41.3096 130.959C39.2515 130.303 37.2889 129.448 35.8336 128.643C35.1044 128.24 34.5161 127.858 34.1099 127.527C34.0016 127.439 33.9096 127.358 33.8332 127.283Z" fill="#FDF9F2" stroke="black" stroke-linejoin="round"/>
<path d="M64.452 71.0702C64.4438 71.0592 64.436 71.0489 64.4286 71.0394C63.6421 71.2345 62.5662 71.3007 61.4315 71.3358C60.9559 71.3505 60.4677 71.3597 59.9748 71.369C59.1447 71.3848 58.3011 71.4007 57.4806 71.4435C56.1737 71.5117 55.0095 71.6456 54.1763 71.9295C53.3294 72.218 53.0146 72.5859 52.9976 73.0213C52.7484 79.3755 52.9254 84.034 53.1442 87.7705C53.195 88.6383 53.2484 89.4593 53.2992 90.2421C53.4666 92.8176 53.6071 94.9809 53.5432 97.0464C53.3745 102.501 51.7829 107.292 45.7702 117.564C45.4945 118.035 45.4642 118.561 45.6571 119.157C45.8597 119.783 46.3047 120.465 46.9392 121.16C47.5698 121.851 48.3654 122.532 49.2343 123.158C50.9778 124.414 52.9656 125.413 54.409 125.832C54.8874 125.97 55.2882 126.045 55.5846 126.052C55.8757 126.059 55.9487 125.998 55.9497 125.999C55.9498 125.999 55.9497 125.999 55.9497 126C66.1879 112.958 68.5406 99.0311 68.1678 88.4065C67.9813 83.0925 67.1129 78.6111 66.2121 75.491C65.7612 73.9294 65.3049 72.7184 64.9269 71.919C64.7364 71.516 64.5742 71.2358 64.452 71.0702Z" fill="white" stroke="black"/>
<path d="M53.5028 126.588C52.0227 126.059 50.2298 125.107 48.6486 123.968C47.7396 123.313 46.888 122.588 46.1993 121.833C45.7125 121.3 45.2955 120.739 45.0004 120.167C44.3562 120.725 43.5373 121.288 42.6872 121.748C41.5878 122.343 40.3585 122.808 39.3387 122.81C38.3671 122.813 37.8732 123.079 37.6826 123.312C37.5305 123.497 37.4979 123.753 37.7416 124.076C37.9995 124.417 38.5603 124.792 39.4891 124.987C40.409 125.179 41.6565 125.185 43.2257 124.823C43.4211 124.778 43.6246 124.854 43.7426 125.017C43.8605 125.179 43.8701 125.396 43.7669 125.568C43.3034 126.34 42.3988 126.856 41.4712 127.246C40.7307 127.558 39.8941 127.82 39.1158 128.065C38.9038 128.131 38.6961 128.196 38.4959 128.261C37.5192 128.575 36.7571 128.862 36.3399 129.19C36.1415 129.346 36.0824 129.465 36.0688 129.545C36.0563 129.619 36.0645 129.765 36.246 130.021C36.9088 130.956 38.232 131.391 40.0469 131.38C41.8375 131.369 43.9641 130.922 46.0264 130.264C48.0844 129.608 50.047 128.752 51.5023 127.948C52.2315 127.545 52.8198 127.162 53.2261 126.832C53.3344 126.744 53.4263 126.662 53.5028 126.588Z" fill="#FDF9F2" stroke="black" stroke-linejoin="round"/>
<path d="M11.7823 48.8076C12.6351 51.2556 11.6967 53.5921 9.98075 54.1899C8.26484 54.7876 6.07782 53.5398 5.22506 51.0918C4.37229 48.6438 5.31069 46.3073 7.0266 45.7095C8.74251 45.1118 10.9295 46.3596 11.7823 48.8076Z" fill="#F1E6DF" stroke="black"/>
<path d="M74.1142 48.8769C73.2614 51.3249 74.1998 53.6615 75.9157 54.2592C77.6316 54.857 79.8187 53.6091 80.6714 51.1611C81.5242 48.7132 80.5858 46.3766 78.8699 45.7789C77.154 45.1811 74.9669 46.4289 74.1142 48.8769Z" fill="#F1E6DF" stroke="black"/>
<path d="M78.5 45.5C78.5 63.1262 62.6554 77.5 43 77.5C23.3446 77.5 7.5 63.1262 7.5 45.5C7.5 27.8738 23.3446 13.5 43 13.5C62.6554 13.5 78.5 27.8738 78.5 45.5Z" fill="#F1E6DF" stroke="black"/>
<path d="M54.3301 16.5895C54.9781 13.0406 55.1847 8.8031 54.9271 2.65434C70.4641 6.87998 81.9985 23.214 81.9985 38.4997C81.9985 40.0387 81.9046 41.556 81.7222 43.0467C77.25 43.4866 71.5117 41.9145 65.9179 38.9386C60.26 35.9286 54.8194 31.5186 51.074 26.4375C52.571 23.0427 53.6745 20.1799 54.3301 16.5895Z" fill="#752823" stroke="black"/>
<path d="M3.99854 38.5C3.99854 17.5252 21.4473 0.5 42.9985 0.5C45.7977 0.5 49.26 0.99287 52.2785 1.64974C53.7854 1.97766 55.1731 2.34459 56.3035 2.70751C57.2818 3.02162 58.0375 3.32349 58.5113 3.58203C59.2786 20.9107 56.0378 31.1417 47.6156 37.0568C43.3594 40.046 37.7356 41.9677 30.5276 43.1104C23.4163 44.2378 14.7958 44.6022 4.48255 44.5042C4.16402 42.5488 3.99854 40.5434 3.99854 38.5Z" fill="#752823" stroke="black"/>
<path d="M16.9985 55C17.7017 55.8841 18.8654 56.6138 20.2885 57.1285M33.9985 55C33.5512 55.75 32.6564 56.875 31.7617 57.25M20.2885 57.1285C20.0866 58.169 19.8617 59.725 18.788 60.625M20.2885 57.1285C21.8104 57.6789 23.6291 57.9833 25.4985 57.9675M25.4985 57.9675V60.625M25.4985 57.9675C27.6701 57.9491 29.7617 57.9593 31.7617 57.25M31.7617 57.25C30.5834 58.5285 31.3143 60.4 33.1038 61" stroke="black" stroke-width="1.5" stroke-linecap="round" stroke-linejoin="round"/>
<path d="M52.9985 55C53.7017 55.8841 54.8654 56.6138 56.2885 57.1285M69.9985 55C69.5512 55.75 68.6564 56.875 67.7617 57.25M56.2885 57.1285C56.0866 58.169 55.8617 59.725 54.788 60.625M56.2885 57.1285C57.8104 57.6789 59.6291 57.9833 61.4985 57.9675M61.4985 57.9675V60.625M61.4985 57.9675C63.6701 57.9491 65.7617 57.9593 67.7617 57.25M67.7617 57.25C66.5834 58.5285 67.3143 60.4 69.1038 61" stroke="black" stroke-width="1.5" stroke-linecap="round" stroke-linejoin="round"/>
<ellipse cx="43.9985" cy="63.499" rx="2.5" ry="3.5" fill="#E6C2B1"/>
<ellipse opacity="0.45" cx="27.4985" cy="68" rx="2.5" ry="2" fill="#E6C2B1"/>
<ellipse opacity="0.45" cx="61.4985" cy="68" rx="2.5" ry="2" fill="#E6C2B1"/>
<path d="M43.9927 60.0693C40.4985 60.999 40.4985 64.999 42.9927 67.0693" stroke="black" stroke-width="2" stroke-linecap="round" stroke-linejoin="round"/>
<path d="M41 72C41.5556 73.3333 45.7222 73.3333 46 72" stroke="#E6C2B1" stroke-width="2" stroke-linecap="round"/>
</svg>
