<svg width="100" height="100" viewBox="0 0 100 100" fill="none" xmlns="http://www.w3.org/2000/svg">
<rect width="100" height="100" rx="50" fill="#00AEEF"/>
<g clip-path="url(#clip0)">
<path fill-rule="evenodd" clip-rule="evenodd" d="M63.1475 37.9373C62.4486 37.9373 61.8913 38.0791 61.4714 38.6355C61.0558 39.0504 60.7775 39.606 60.7775 40.304C60.7775 58.5765 60.7775 58.5765 60.7775 58.5765C60.7775 59.2694 61.0558 59.8258 61.4714 60.2457C61.8913 60.8014 62.4486 60.943 63.1475 60.943C63.7048 60.943 64.2612 60.8014 64.8185 60.2457C65.2383 59.8259 65.3758 59.2695 65.3758 58.5765C65.3758 40.304 65.3758 40.304 65.3758 40.304C65.3758 39.6058 65.2383 39.0503 64.8185 38.6355C64.2612 38.0791 63.7048 37.9373 63.1475 37.9373ZM76.9566 55.7808C76.3993 56.4738 75.7056 56.9028 74.7283 56.9028C73.7512 56.9028 72.9157 56.4738 72.3584 55.7808C71.8011 54.942 71.5229 53.9705 71.5229 52.8535C71.5229 51.7407 71.8011 50.9069 72.3584 50.0723C72.9157 49.3649 73.7512 48.945 74.7283 48.945C75.7056 48.945 76.3993 49.3649 76.9566 50.0723C77.669 50.9069 77.9481 51.7407 77.9481 52.8535C77.9481 53.9705 77.669 54.9419 76.9566 55.7808ZM80.4547 46.9983C78.9202 45.3298 76.9566 44.4901 74.7283 44.4901C72.3584 44.4901 70.5458 45.3299 69.0113 46.8568C67.6185 48.5303 66.9102 50.4914 66.9102 52.8536C66.9102 55.2202 67.6185 57.3229 69.0113 58.8549C70.5458 60.5234 72.3584 61.3581 74.7283 61.3581C76.9566 61.3581 78.9202 60.5234 80.4547 58.8549C81.8475 57.3229 82.5464 55.2202 82.5464 52.8536C82.5464 50.4913 81.8476 48.5302 80.4547 46.9983ZM53.3743 55.7808C52.818 56.4738 51.9815 56.9028 51.0044 56.9028C50.0323 56.9028 49.1968 56.4738 48.6344 55.7808C48.0679 54.942 47.7897 53.9705 47.7897 52.8535C47.7897 51.7407 48.0679 50.9069 48.6344 50.0723C49.1968 49.3649 50.0323 48.945 51.0044 48.945C51.9815 48.945 52.8178 49.3649 53.3743 50.0723C53.9316 50.9069 54.2148 51.7407 54.2148 52.8535C54.2147 53.9705 53.9315 54.9419 53.3743 55.7808ZM56.4431 44.7683C55.466 44.7683 54.7721 45.3298 54.3514 46.3002C53.3743 45.0464 51.9815 44.49 50.3104 44.49C48.3562 44.49 46.5334 45.3298 45.2781 46.9982C43.8853 48.5301 43.1862 50.4911 43.1862 52.8534C43.1862 55.22 43.8852 57.181 45.2781 58.8547C46.5334 60.5232 48.3563 61.3579 50.3104 61.3579C51.9815 61.3579 53.3743 60.6606 54.3514 59.5476C54.7721 60.5231 55.466 60.9429 56.4431 60.9429C57.1421 60.9429 57.6995 60.8013 58.1286 60.2456C58.5443 59.8258 58.8224 59.2694 58.8224 58.5764C58.8224 47.1348 58.8224 47.1348 58.8224 47.1348C58.8224 46.5782 58.5443 46.0226 58.1286 45.4661C57.6995 45.0464 57.1421 44.7683 56.4431 44.7683ZM38.8662 36.5463C16.9463 36.5463 16.9463 36.5463 16.9463 36.5463C15.2702 36.5463 14.019 37.8009 14.019 39.4694C14.019 60.8015 14.019 60.8015 14.019 60.8015C14.019 62.3342 15.2702 63.5972 16.9463 63.5972C16.9463 63.5972 18.4808 63.5972 21.0017 63.5972C21.0017 64.5736 21.0017 66.242 21.0017 67.0767C21.0017 67.355 21.4173 67.355 21.5589 67.2182C22.8097 66.1054 26.4358 63.5972 26.4358 63.5972C38.8662 63.5972 38.8662 63.5972 38.8662 63.5972C40.4006 63.5972 41.6569 62.3343 41.6569 60.8015C41.6569 60.2459 41.6569 60.2459 41.6569 60.2459C40.9579 60.8015 39.9807 60.9431 39.9807 60.9431C39.9807 60.9431 26.2989 60.9431 25.4582 60.9431C24.6227 60.9431 23.2298 60.5233 22.9517 59.133C22.8097 57.7376 23.5086 57.1811 23.5086 57.1811C32.4408 45.0464 32.4408 45.0464 32.4408 45.0464C25.7415 45.0464 25.7415 45.0464 25.7415 45.0464C25.7415 45.0464 23.2298 44.9098 23.2298 41.9725C23.2298 39.0503 26.1572 39.0503 26.1572 39.0503C26.1572 39.0503 38.2953 39.0503 40.1223 39.0503C40.8163 39.0503 41.236 39.1911 41.6569 39.4693C41.6569 37.8009 40.4006 36.5463 38.8662 36.5463ZM39.8442 55.3618C40.6788 55.3618 41.2361 55.5027 41.6569 55.9172C41.6569 42.9632 41.6569 42.9632 41.6569 42.9632C32.5825 55.3618 32.5825 55.3618 32.5825 55.3618C32.5825 55.3618 38.7246 55.3618 39.8442 55.3618Z" fill="white"/>
<path fill-rule="evenodd" clip-rule="evenodd" d="M87.0175 41.1387C84.3591 37.5226 80.1765 37.9373 80.1765 37.9373C80.1765 37.9373 79.7566 38.2156 79.7566 38.4937C79.8975 38.9128 80.1765 38.9128 80.1765 38.9128C80.1765 38.9128 83.8027 38.4937 86.1725 41.695C88.4146 44.6317 87.9947 47.2765 87.8581 47.413C87.8581 47.6963 88.1363 48.1111 88.4146 48.1111C88.8301 48.1111 88.9719 47.5547 88.9719 47.5547C88.9719 47.5547 89.3875 44.49 87.0175 41.1387ZM80.3183 40.4456C80.3183 40.4456 79.7566 40.5823 79.7566 40.8604C79.7566 41.2796 80.1765 41.4169 80.1765 41.4169C80.1765 41.4169 82.8247 41.1386 84.2176 42.9631C85.752 44.7682 85.6154 47.2765 85.6154 47.413C85.6154 47.6963 85.752 47.9736 86.0311 47.9736C86.4508 47.9736 86.5873 47.5547 86.5873 47.5547C86.5873 47.5547 86.7392 44.6316 85.0531 42.5431C83.3822 40.304 80.3183 40.4456 80.3183 40.4456ZM80.5964 42.685C80.5964 42.685 80.0349 42.685 80.0349 43.2414C80.1765 43.5187 80.4548 43.7971 80.4548 43.7971C80.4548 43.7971 82.1265 43.7971 82.8247 44.9099C83.3821 45.8854 83.2455 47.1349 83.2455 47.1349C83.2455 47.1349 83.3821 47.6964 83.6611 47.6964C84.081 47.833 84.359 47.2766 84.359 47.2766C84.359 47.2766 84.4966 45.7445 83.5237 44.3535C82.5465 42.8216 80.5964 42.685 80.5964 42.685Z" fill="white"/>
</g>
<defs>
<clipPath id="clip0">
<rect width="74.9809" height="30.7615" fill="white" transform="translate(14.019 36.5463)"/>
</clipPath>
</defs>
</svg>
